<svg width="39" height="36" viewBox="0 0 39 36" fill="none" xmlns="http://www.w3.org/2000/svg">
<g filter="url(#filter0_d_1_265)">
<path d="M20.3233 10.6684L28.1193 23.9949C28.2381 24.1981 28.3007 24.4286 28.3007 24.6632C28.3007 24.8979 28.2381 25.1284 28.1193 25.3316C28.0004 25.5348 27.8294 25.7036 27.6235 25.8209C27.4176 25.9382 27.1841 26 26.9463 26H11.3544C11.1166 26 10.8831 25.9382 10.6772 25.8209C10.4713 25.7036 10.3003 25.5348 10.1814 25.3316C10.0626 25.1284 10 24.8979 10 24.6632C10 24.4286 10.0626 24.1981 10.1815 23.9949L17.9774 10.6684C18.4984 9.77721 19.8014 9.77721 20.3233 10.6684ZM19.1504 21.2305C18.9109 21.2305 18.6812 21.3244 18.5119 21.4915C18.3425 21.6586 18.2474 21.8853 18.2474 22.1216C18.2474 22.358 18.3425 22.5847 18.5119 22.7518C18.6812 22.9189 18.9109 23.0128 19.1504 23.0128C19.3898 23.0128 19.6195 22.9189 19.7888 22.7518C19.9582 22.5847 20.0533 22.358 20.0533 22.1216C20.0533 21.8853 19.9582 21.6586 19.7888 21.4915C19.6195 21.3244 19.3898 21.2305 19.1504 21.2305ZM19.1504 14.9923C18.9292 14.9923 18.7157 15.0725 18.5505 15.2175C18.3852 15.3626 18.2796 15.5624 18.2537 15.7792L18.2474 15.8835V19.4481C18.2477 19.6753 18.3358 19.8938 18.4938 20.0589C18.6518 20.2241 18.8677 20.3235 19.0974 20.3368C19.3272 20.3501 19.5534 20.2763 19.7299 20.1305C19.9064 19.9848 20.0198 19.778 20.047 19.5524L20.0533 19.4481V15.8835C20.0533 15.6471 19.9582 15.4205 19.7888 15.2533C19.6195 15.0862 19.3898 14.9923 19.1504 14.9923Z" fill="#69644A"/>
</g>
<defs>
<filter id="filter0_d_1_265" x="0" y="0" width="38.3007" height="36" filterUnits="userSpaceOnUse" color-interpolation-filters="sRGB">
<feFlood flood-opacity="0" result="BackgroundImageFix"/>
<feColorMatrix in="SourceAlpha" type="matrix" values="0 0 0 0 0 0 0 0 0 0 0 0 0 0 0 0 0 0 127 0" result="hardAlpha"/>
<feOffset/>
<feGaussianBlur stdDeviation="5"/>
<feComposite in2="hardAlpha" operator="out"/>
<feColorMatrix type="matrix" values="0 0 0 0 1 0 0 0 0 0 0 0 0 0 0 0 0 0 0.44 0"/>
<feBlend mode="normal" in2="BackgroundImageFix" result="effect1_dropShadow_1_265"/>
<feBlend mode="normal" in="SourceGraphic" in2="effect1_dropShadow_1_265" result="shape"/>
</filter>
</defs>
</svg>
