<svg width="36" height="44" viewBox="0 0 36 44" fill="none" xmlns="http://www.w3.org/2000/svg">
<path d="M19.2001 38.5C17.15 38.5 15.225 38.0312 13.425 37.0938C11.625 36.1562 10.15 34.85 9.00005 33.175L1.80005 22.6L2.51255 21.8875C3.01255 21.3625 3.6313 21.0625 4.3688 20.9875C5.1063 20.9125 5.77505 21.0875 6.37505 21.5125L10.5 24.3625V10C10.5 9.575 10.6438 9.21875 10.9313 8.93125C11.2188 8.64375 11.575 8.5 12 8.5C12.425 8.5 12.7813 8.64375 13.0688 8.93125C13.3563 9.21875 13.5 9.575 13.5 10V30.1375L7.95005 26.275L11.5125 31.45C12.3875 32.725 13.5 33.7188 14.85 34.4312C16.2 35.1437 17.65 35.5 19.2001 35.5C21.775 35.5 23.9688 34.5937 25.7813 32.7812C27.5938 30.9687 28.5 28.775 28.5 26.2V11.5C28.5 11.075 28.6438 10.7187 28.9313 10.4312C29.2188 10.1437 29.5751 10 30 10C30.4251 10 30.7813 10.1437 31.0688 10.4312C31.3563 10.7187 31.5 11.075 31.5 11.5V26.2C31.5 29.625 30.3063 32.5312 27.9188 34.9187C25.5313 37.3062 22.625 38.5 19.2001 38.5ZM16.5 22V7C16.5 6.575 16.6438 6.21875 16.9313 5.93125C17.2188 5.64375 17.575 5.5 18 5.5C18.425 5.5 18.7813 5.64375 19.0688 5.93125C19.3563 6.21875 19.5 6.575 19.5 7V22H16.5ZM22.5 22V8.5C22.5 8.075 22.6438 7.71875 22.9313 7.43125C23.2188 7.14375 23.5751 7 24 7C24.425 7 24.7813 7.14375 25.0688 7.43125C25.3563 7.71875 25.5 8.075 25.5 8.5V22H22.5Z" fill="black"/>
</svg>
