<svg width="23" height="18" viewBox="0 0 23 18" fill="none" xmlns="http://www.w3.org/2000/svg">
<path d="M0 15.2308H22.2906V18H0V15.2308ZM2.78633 9.69231H5.57266V13.8462H2.78633V9.69231ZM6.96583 4.15385H9.75216V13.8462H6.96583V4.15385ZM11.1453 8.30769H13.9317V13.8462H11.1453V8.30769ZM15.3248 0H18.1111V13.8462H15.3248V0Z" fill="#6F4F94"/>
<path d="M21.791 15.7305V17.5H0.5V15.7305H21.791ZM17.6113 0.5V13.3457H15.8252V0.5H17.6113ZM13.4316 8.80762V13.3457H11.6455V8.80762H13.4316ZM9.25195 4.6543V13.3457H7.46582V4.6543H9.25195ZM5.07227 10.1924V13.3457H3.28613V10.1924H5.07227Z" stroke="#6F4F94" stroke-opacity="0.3"/>
</svg>
