<svg width="43" height="42" viewBox="0 0 43 42" fill="none" xmlns="http://www.w3.org/2000/svg">
<mask id="path-1-inside-1_1_212" fill="white">
<path d="M0 4C0 1.79086 1.79086 0 4 0H38.02C40.2291 0 42.02 1.79086 42.02 4V38C42.02 40.2091 40.2291 42 38.02 42H4C1.79086 42 0 40.2091 0 38V4Z"/>
</mask>
<path d="M0 4C0 1.79086 1.79086 0 4 0H38.02C40.2291 0 42.02 1.79086 42.02 4V38C42.02 40.2091 40.2291 42 38.02 42H4C1.79086 42 0 40.2091 0 38V4Z" fill="#BE7929" fill-opacity="0.45"/>
<path d="M4 0V1H38.02V0V-1H4V0ZM42.02 4H41.02V38H42.02H43.02V4H42.02ZM38.02 42V41H4V42V43H38.02V42ZM0 38H1V4H0H-1V38H0ZM4 42V41C2.34314 41 1 39.6569 1 38H0H-1C-1 40.7614 1.23857 43 4 43V42ZM42.02 38H41.02C41.02 39.6569 39.6769 41 38.02 41V42V43C40.7814 43 43.02 40.7614 43.02 38H42.02ZM38.02 0V1C39.6769 1 41.02 2.34315 41.02 4H42.02H43.02C43.02 1.23858 40.7814 -1 38.02 -1V0ZM4 0V-1C1.23858 -1 -1 1.23858 -1 4H0H1C1 2.34315 2.34315 1 4 1V0Z" fill="white" fill-opacity="0.1" mask="url(#path-1-inside-1_1_212)"/>
</svg>
