<svg width="642" height="76" viewBox="0 0 642 76" fill="none" xmlns="http://www.w3.org/2000/svg">
<g filter="url(#filter0_d_1_964)">
<path d="M10 42.374C22.4451 42.5073 34.8902 42.634 47.3353 42.754C115.842 43.4146 184.349 43.8731 252.855 44.1297C253.454 44.1319 254.196 43.6523 254.449 43.1103C256.033 39.7162 257.616 36.3218 259.198 32.9272L256.006 33.0617C257.928 36.4683 259.85 39.8746 261.773 43.2805C262.046 43.7643 262.812 44.2064 263.367 44.2081C269.046 44.2256 274.725 44.2418 280.403 44.2565C281.097 44.2583 281.901 43.7061 282.156 43.0606C284.102 38.1301 286.047 33.1992 287.991 28.2678L284.389 28.1967C288.471 40.0507 292.56 51.9024 296.656 63.7519C297.378 65.8372 300.107 65.6113 300.479 63.436C302.564 51.2874 304.644 39.1377 306.716 26.987C307.543 22.1378 308.369 17.2883 309.195 12.4388L305.319 12.6966C308.465 22.7856 311.615 32.8732 314.77 42.9593C315.353 44.8352 317.463 45.0327 318.388 43.3002C320.196 39.8978 322.003 36.4951 323.81 33.0921L320.47 33.2661C322.771 36.6623 325.073 40.0581 327.376 43.4534C327.667 43.8863 328.453 44.302 328.974 44.303C417.538 44.1243 506.101 43.608 594.665 42.754C607.11 42.634 619.555 42.5073 632 42.374C619.555 42.2407 607.11 42.114 594.665 41.994C506.101 41.14 417.538 40.6237 328.974 40.445L330.573 41.2945C328.284 37.8899 325.995 34.4857 323.705 31.0819C322.779 29.715 321.139 29.798 320.365 31.2559C318.547 34.6529 316.73 38.0502 314.913 41.4478L318.53 41.7887C315.402 31.6942 312.27 21.6011 309.133 11.5094C308.465 9.36535 305.635 9.55351 305.258 11.7673C304.428 16.6161 303.6 21.4652 302.773 26.3144C300.701 38.4652 298.634 50.617 296.575 62.77L300.398 62.4541C296.277 50.6133 292.15 38.7747 288.017 26.9384C287.363 25.0601 285.138 25.0145 284.415 26.8672C282.492 31.8069 280.571 36.7469 278.65 41.6874L280.403 40.4915C274.725 40.5062 269.046 40.5224 263.367 40.5399L264.962 41.4674C263.018 38.0734 261.074 34.6797 259.129 31.2863C258.31 29.8546 256.625 29.9215 255.937 31.4208C254.378 34.8262 252.82 38.2318 251.262 41.6377L252.855 40.6183C184.349 40.8749 115.842 41.3334 47.3353 41.994C34.8902 42.114 22.4451 42.2407 10 42.374Z" fill="url(#paint0_linear_1_964)"/>
</g>
<defs>
<filter id="filter0_d_1_964" x="0" y="0" width="642" height="75.198" filterUnits="userSpaceOnUse" color-interpolation-filters="sRGB">
<feFlood flood-opacity="0" result="BackgroundImageFix"/>
<feColorMatrix in="SourceAlpha" type="matrix" values="0 0 0 0 0 0 0 0 0 0 0 0 0 0 0 0 0 0 127 0" result="hardAlpha"/>
<feOffset/>
<feGaussianBlur stdDeviation="5"/>
<feComposite in2="hardAlpha" operator="out"/>
<feColorMatrix type="matrix" values="0 0 0 0 0.455305 0 0 0 0 0.188566 0 0 0 0 0.988782 0 0 0 1 0"/>
<feBlend mode="normal" in2="BackgroundImageFix" result="effect1_dropShadow_1_964"/>
<feBlend mode="normal" in="SourceGraphic" in2="effect1_dropShadow_1_964" result="shape"/>
</filter>
<linearGradient id="paint0_linear_1_964" x1="10" y1="37.603" x2="632" y2="37.603" gradientUnits="userSpaceOnUse">
<stop stop-color="#EB8EFD" stop-opacity="0"/>
<stop offset="0.504808" stop-color="#A43DFF"/>
<stop offset="1" stop-color="#EB8EFD" stop-opacity="0"/>
</linearGradient>
</defs>
</svg>
