<svg width="19" height="17" viewBox="0 0 19 17" fill="none" xmlns="http://www.w3.org/2000/svg">
<path d="M5.0566 16.9999C3.65584 16.9999 2.46288 16.5227 1.47773 15.5684C0.492576 14.614 0 13.4583 0 12.1013C0 10.8188 0.442703 9.71144 1.32811 8.77913C2.21352 7.84681 3.31781 7.32876 4.64099 7.22497L1.59318 1.29736C1.43925 0.999119 1.45095 0.708331 1.62827 0.424998C1.8056 0.141666 2.07098 0 2.4244 0H6.25726C6.6113 0 6.93086 0.0894733 7.21594 0.26842C7.50101 0.447367 7.72791 0.685962 7.89662 0.984207L9.23581 3.57893L10.575 0.984207C10.7443 0.685962 10.9715 0.447367 11.2566 0.26842C11.5417 0.0894733 11.8609 0 12.2144 0H16.0472C16.4013 0 16.6669 0.141666 16.8443 0.424998C17.0216 0.708331 17.033 0.999119 16.8784 1.29736L13.8537 7.18024C15.1621 7.29953 16.259 7.82534 17.1444 8.75765C18.0298 9.68996 18.4722 10.797 18.4716 12.0789C18.4716 13.4508 17.979 14.614 16.9939 15.5684C16.0087 16.5227 14.8081 16.9999 13.3919 16.9999C13.2534 16.9999 13.1112 16.9964 12.9652 16.9892C12.8193 16.982 12.6768 16.9633 12.5376 16.9328C13.3842 16.396 14.0461 15.699 14.5233 14.8418C15.0005 13.9847 15.2391 13.0637 15.2391 12.0789C15.2391 10.4535 14.6578 9.07797 13.4954 7.95239C12.3329 6.82682 10.913 6.26373 9.23581 6.26313C7.55859 6.26254 6.13873 6.82562 4.97625 7.95239C3.81377 9.07916 3.23253 10.4547 3.23253 12.0789C3.23253 13.0929 3.44803 14.0473 3.87904 14.9421C4.31004 15.8368 4.98734 16.5004 5.91092 16.9328C5.77238 16.9627 5.63015 16.9814 5.48422 16.9892C5.3383 16.997 5.19576 17.0005 5.0566 16.9999ZM9.23581 16.1052C8.08133 16.1052 7.10018 15.7139 6.29236 14.9313C5.48453 14.1487 5.08031 13.1979 5.07969 12.0789C5.07908 10.9599 5.4833 10.0094 6.29236 9.22739C7.10141 8.44539 8.08256 8.05379 9.23581 8.0526C10.3891 8.05141 11.3705 8.443 12.1802 9.22739C12.9899 10.0118 13.3938 10.9623 13.3919 12.0789C13.3901 13.1955 12.9862 14.1463 12.1802 14.9313C11.3742 15.7163 10.3927 16.1076 9.23581 16.1052ZM9.23581 13.2868L10.3672 14.1144C10.4596 14.189 10.5519 14.1929 10.6443 14.1261C10.7366 14.0592 10.7674 13.9734 10.7366 13.8684L10.2979 12.5039L11.4293 11.721C11.5217 11.6464 11.5525 11.5606 11.5217 11.4633C11.4909 11.3661 11.4139 11.3178 11.2908 11.3184H9.9054L9.4667 9.86444C9.43592 9.76005 9.35895 9.70786 9.23581 9.70786C9.11266 9.70786 9.0357 9.76005 9.00491 9.86444L8.56621 11.3184H7.18084C7.0577 11.3184 6.98073 11.367 6.94994 11.4642C6.91916 11.5614 6.94995 11.647 7.0423 11.721L8.17369 12.5039L7.73499 13.8684C7.7042 13.9728 7.73499 14.0587 7.82735 14.1261C7.91971 14.1935 8.01206 14.1896 8.10442 14.1144L9.23581 13.2868Z" fill="#94996A"/>
</svg>
