<svg width="42" height="39" viewBox="0 0 42 39" fill="none" xmlns="http://www.w3.org/2000/svg">
<mask id="path-1-inside-1_1_236" fill="white">
<path d="M0 4C0 1.79086 1.79086 0 4 0H38C40.2091 0 42 1.79086 42 4V35C42 37.2091 40.2091 39 38 39H4C1.79086 39 0 37.2091 0 35V4Z"/>
</mask>
<path d="M0 4C0 1.79086 1.79086 0 4 0H38C40.2091 0 42 1.79086 42 4V35C42 37.2091 40.2091 39 38 39H4C1.79086 39 0 37.2091 0 35V4Z" fill="#09220F"/>
<path d="M4 0V1H38V0V-1H4V0ZM42 4H41V35H42H43V4H42ZM38 39V38H4V39V40H38V39ZM0 35H1V4H0H-1V35H0ZM4 39V38C2.34315 38 1 36.6569 1 35H0H-1C-1 37.7614 1.23858 40 4 40V39ZM42 35H41C41 36.6569 39.6569 38 38 38V39V40C40.7614 40 43 37.7614 43 35H42ZM38 0V1C39.6569 1 41 2.34315 41 4H42H43C43 1.23858 40.7614 -1 38 -1V0ZM4 0V-1C1.23858 -1 -1 1.23858 -1 4H0H1C1 2.34315 2.34315 1 4 1V0Z" fill="white" fill-opacity="0.1" mask="url(#path-1-inside-1_1_236)"/>
<g filter="url(#filter0_d_1_236)">
<path d="M15 28C14.1667 28 13.4583 27.7083 12.875 27.125C12.2917 26.5417 12 25.8333 12 25V17C12 16.7167 12.096 16.4793 12.288 16.288C12.48 16.0967 12.7173 16.0007 13 16H29C29.2833 16 29.521 16.096 29.713 16.288C29.905 16.48 30.0007 16.7173 30 17V25C30 25.8333 29.7083 26.5417 29.125 27.125C28.5417 27.7083 27.8333 28 27 28H15ZM18 13V12C18 11.7167 18.096 11.4793 18.288 11.288C18.48 11.0967 18.7173 11.0007 19 11H23C23.2833 11 23.521 11.096 23.713 11.288C23.905 11.48 24.0007 11.7173 24 12V13H29C29.2833 13 29.521 13.096 29.713 13.288C29.905 13.48 30.0007 13.7173 30 14C29.9993 14.2827 29.9033 14.5203 29.712 14.713C29.5207 14.9057 29.2833 15.0013 29 15H13C12.7167 15 12.4793 14.904 12.288 14.712C12.0967 14.52 12.0007 14.2827 12 14C11.9993 13.7173 12.0953 13.48 12.288 13.288C12.4807 13.096 12.718 13 13 13H18Z" fill="#2BCB53"/>
</g>
<defs>
<filter id="filter0_d_1_236" x="7" y="6" width="28" height="27" filterUnits="userSpaceOnUse" color-interpolation-filters="sRGB">
<feFlood flood-opacity="0" result="BackgroundImageFix"/>
<feColorMatrix in="SourceAlpha" type="matrix" values="0 0 0 0 0 0 0 0 0 0 0 0 0 0 0 0 0 0 127 0" result="hardAlpha"/>
<feOffset/>
<feGaussianBlur stdDeviation="2.5"/>
<feComposite in2="hardAlpha" operator="out"/>
<feColorMatrix type="matrix" values="0 0 0 0 0.145098 0 0 0 0 0.956863 0 0 0 0 0.470588 0 0 0 0.45 0"/>
<feBlend mode="normal" in2="BackgroundImageFix" result="effect1_dropShadow_1_236"/>
<feBlend mode="normal" in="SourceGraphic" in2="effect1_dropShadow_1_236" result="shape"/>
</filter>
</defs>
</svg>
