<svg width="10" height="10" viewBox="0 0 10 10" fill="none" xmlns="http://www.w3.org/2000/svg">
<path d="M1.25 8.75H10V10H0V0H1.25V8.75ZM2.8125 8.125C2.68578 8.12525 2.56032 8.09981 2.44371 8.05022C2.32709 8.00062 2.22175 7.9279 2.13403 7.83644C2.04631 7.74498 1.97805 7.63669 1.93336 7.51811C1.88867 7.39953 1.86848 7.27312 1.87402 7.14652C1.87956 7.01992 1.91071 6.89576 1.96559 6.78153C2.02046 6.66731 2.09792 6.56539 2.19329 6.48195C2.28866 6.3985 2.39996 6.33526 2.52046 6.29604C2.64096 6.25682 2.76816 6.24243 2.89438 6.25375L3.90188 4.57437C3.80975 4.4329 3.75754 4.26917 3.75076 4.10048C3.74397 3.93179 3.78287 3.7644 3.86333 3.61598C3.9438 3.46756 4.06285 3.34363 4.20792 3.25726C4.35298 3.1709 4.51867 3.12531 4.6875 3.12531C4.85633 3.12531 5.02202 3.1709 5.16708 3.25726C5.31215 3.34363 5.4312 3.46756 5.51167 3.61598C5.59213 3.7644 5.63103 3.93179 5.62424 4.10048C5.61746 4.26917 5.56525 4.4329 5.47312 4.57437L6.48063 6.25375C6.52843 6.24939 6.57651 6.24897 6.62437 6.2525L8.28813 3.34125C8.16856 3.16612 8.11191 2.95563 8.12741 2.74414C8.14291 2.53266 8.22964 2.33267 8.37346 2.17684C8.51728 2.02101 8.70967 1.91854 8.91924 1.88616C9.1288 1.85378 9.34316 1.8934 9.5273 1.99855C9.71144 2.10371 9.8545 2.26818 9.9331 2.46513C10.0117 2.66207 10.0212 2.87985 9.96011 3.0829C9.89898 3.28595 9.77083 3.46228 9.59656 3.5831C9.42229 3.70392 9.21222 3.7621 9.00062 3.74813L7.33687 6.65937C7.43247 6.79957 7.48822 6.96309 7.49818 7.13249C7.50813 7.30188 7.47193 7.4708 7.39343 7.62124C7.31492 7.77168 7.19706 7.89798 7.05241 7.98669C6.90775 8.07541 6.74174 8.12319 6.57206 8.12496C6.40238 8.12673 6.2354 8.08241 6.08893 7.99673C5.94246 7.91105 5.82199 7.78723 5.74037 7.63846C5.65875 7.48969 5.61904 7.32156 5.62546 7.15199C5.63189 6.98243 5.68422 6.81779 5.77688 6.67562L4.76937 4.99625C4.71491 5.00137 4.66009 5.00137 4.60563 4.99625L3.59812 6.67562C3.69033 6.81711 3.74261 6.98087 3.74944 7.1496C3.75626 7.31834 3.71738 7.48579 3.63691 7.63426C3.55643 7.78272 3.43735 7.9067 3.29224 7.99308C3.14712 8.07946 2.98138 8.12504 2.8125 8.125Z" fill="#50655A"/>
</svg>
