<svg width="10" height="10" viewBox="0 0 10 10" fill="none" xmlns="http://www.w3.org/2000/svg">
<path d="M8.48763 0.249419L0.261501 8.47591C0.0940648 8.64334 -1.76423e-09 8.87043 0 9.10721C1.76423e-09 9.34399 0.0940648 9.57108 0.261501 9.73851C0.428937 9.90594 0.65603 10 0.89282 10C1.12961 10 1.3567 9.90594 1.52414 9.73851L9.75026 1.51265C9.9125 1.34414 10.0022 1.11871 9.99996 0.884812C9.99777 0.650912 9.90391 0.427206 9.73854 0.261764C9.57318 0.0963234 9.34951 0.00235201 9.11561 4.35533e-05C8.8817 -0.00226491 8.65622 0.0872739 8.48763 0.249419ZM1.84486 0.566966C1.67871 0.5668 1.51416 0.599359 1.3606 0.662784C1.20704 0.726209 1.06748 0.819258 0.949879 0.936619C0.83228 1.05398 0.738949 1.19335 0.675215 1.34678C0.611481 1.50021 0.578592 1.66469 0.578426 1.83083C0.57826 1.99697 0.610819 2.16151 0.674247 2.31507C0.737674 2.46862 0.830726 2.60818 0.94809 2.72578C1.06545 2.84337 1.20483 2.9367 1.35827 3.00043C1.5117 3.06417 1.67618 3.09705 1.84233 3.09722C2.17787 3.09756 2.49981 2.96459 2.73731 2.72757C2.97481 2.49055 3.10843 2.16889 3.10876 1.83336C3.1091 1.49783 2.97613 1.1759 2.7391 0.938408C2.50207 0.700913 2.1804 0.567302 1.84486 0.566966ZM8.1707 6.8926C7.83516 6.89227 7.51322 7.02524 7.27572 7.26226C7.03822 7.49928 6.9046 7.82093 6.90427 8.15646C6.90393 8.492 7.0369 8.81392 7.27393 9.05142C7.51096 9.28891 7.83263 9.42252 8.16817 9.42286C8.33431 9.42302 8.49886 9.39046 8.65243 9.32704C8.80599 9.26361 8.94555 9.17057 9.06315 9.05321C9.18075 8.93585 9.27408 8.79647 9.33781 8.64304C9.40155 8.48961 9.43444 8.32514 9.4346 8.159C9.43477 7.99286 9.40221 7.82831 9.33878 7.67476C9.27536 7.5212 9.1823 7.38164 9.06494 7.26405C8.94757 7.14645 8.8082 7.05312 8.65476 6.98939C8.50133 6.92566 8.33685 6.89277 8.1707 6.8926Z" fill="#DEFF8B"/>
</svg>
