<svg width="19" height="33" viewBox="0 0 19 33" fill="none" xmlns="http://www.w3.org/2000/svg">
<g filter="url(#filter0_d_1_246)">
<path d="M7.13458 4.5L4.5 17.3H8.45187L5.81729 28.5L13.721 14.1H9.76916L13.721 4.5H7.13458Z" fill="#05A7DD"/>
<path d="M13.7207 4.25C13.8041 4.25 13.8823 4.29204 13.9287 4.36133C13.9749 4.43047 13.9837 4.5178 13.9521 4.59473L10.1426 13.8496H13.7207C13.8091 13.8496 13.8915 13.8966 13.9365 13.9727C13.9814 14.0487 13.9829 14.1433 13.9404 14.2207L6.03613 28.6201C5.97598 28.7297 5.84426 28.7782 5.72754 28.7334C5.61091 28.6886 5.5456 28.564 5.57422 28.4424L8.13672 17.5498H4.5C4.42496 17.5498 4.35412 17.5161 4.30664 17.458C4.25926 17.3999 4.2399 17.3235 4.25488 17.25L6.88965 4.44922L6.90234 4.40723C6.93967 4.31364 7.0311 4.25 7.13477 4.25H13.7207Z" stroke="#037AD4" stroke-width="0.5" stroke-linejoin="round"/>
</g>
<defs>
<filter id="filter0_d_1_246" x="0" y="0" width="18.221" height="33.0001" filterUnits="userSpaceOnUse" color-interpolation-filters="sRGB">
<feFlood flood-opacity="0" result="BackgroundImageFix"/>
<feColorMatrix in="SourceAlpha" type="matrix" values="0 0 0 0 0 0 0 0 0 0 0 0 0 0 0 0 0 0 127 0" result="hardAlpha"/>
<feOffset/>
<feGaussianBlur stdDeviation="2"/>
<feComposite in2="hardAlpha" operator="out"/>
<feColorMatrix type="matrix" values="0 0 0 0 0.0156863 0 0 0 0 0.666667 0 0 0 0 0.862745 0 0 0 0.61 0"/>
<feBlend mode="normal" in2="BackgroundImageFix" result="effect1_dropShadow_1_246"/>
<feBlend mode="normal" in="SourceGraphic" in2="effect1_dropShadow_1_246" result="shape"/>
</filter>
</defs>
</svg>
