<svg width="20" height="20" viewBox="0 0 20 20" fill="none" xmlns="http://www.w3.org/2000/svg">
<path fill-rule="evenodd" clip-rule="evenodd" d="M12.2025 2.83C12.6556 2.97 13.0887 3.15 13.5019 3.37L15.334 2.27C15.5251 2.15536 15.7489 2.10786 15.97 2.13504C16.1912 2.16221 16.3969 2.26251 16.5545 2.42L17.572 3.438C17.7294 3.5957 17.8297 3.80149 17.8569 4.02271C17.884 4.24392 17.8365 4.46787 17.722 4.659L16.6225 6.492C16.8424 6.90533 17.0223 7.33867 17.1622 7.792L19.2343 8.311C19.4504 8.36517 19.6423 8.49005 19.7794 8.66579C19.9165 8.84154 19.9909 9.05807 19.9909 9.281V10.719C19.9909 10.9419 19.9165 11.1585 19.7794 11.3342C19.6423 11.51 19.4504 11.6348 19.2343 11.689L17.1622 12.208C17.0223 12.6613 16.8424 13.0947 16.6225 13.508L17.722 15.341C17.8365 15.5321 17.884 15.7561 17.8569 15.9773C17.8297 16.1985 17.7294 16.4043 17.572 16.562L16.5545 17.58C16.3969 17.7375 16.1912 17.8378 15.97 17.865C15.7489 17.8921 15.5251 17.8446 15.334 17.73L13.5019 16.63C13.0887 16.85 12.6556 17.03 12.2025 17.17L11.6837 19.243C11.6295 19.4592 11.5047 19.6512 11.3291 19.7883C11.1534 19.9255 10.937 20 10.7141 20H9.27679C9.05396 20 8.83753 19.9255 8.66186 19.7883C8.4862 19.6512 8.36138 19.4592 8.30723 19.243L7.78846 17.17C7.33936 17.0312 6.90431 16.8504 6.48905 16.63L4.65689 17.73C4.46584 17.8446 4.24199 17.8921 4.02088 17.865C3.79977 17.8378 3.59407 17.7375 3.43644 17.58L2.4189 16.562C2.26148 16.4043 2.16123 16.1985 2.13407 15.9773C2.1069 15.7561 2.15438 15.5321 2.26897 15.341L3.36847 13.508C3.14821 13.0926 2.9675 12.6573 2.82872 12.208L0.756656 11.689C0.540674 11.6349 0.34894 11.5101 0.211867 11.3346C0.074793 11.1591 0.000228539 10.9428 0 10.72V9.282C5.85777e-06 9.05907 0.0744684 8.84254 0.211559 8.66679C0.34865 8.49105 0.540508 8.36617 0.756656 8.312L2.82872 7.793C2.96865 7.33967 3.14857 6.90633 3.36847 6.493L2.26897 4.66C2.15438 4.46887 2.1069 4.24492 2.13407 4.02371C2.16123 3.80249 2.26148 3.5967 2.4189 3.439L3.43644 2.42C3.59407 2.26251 3.79977 2.16221 4.02088 2.13504C4.24199 2.10786 4.46584 2.15536 4.65689 2.27L6.48905 3.37C6.9022 3.15 7.33534 2.97 7.78846 2.83L8.30723 0.757C8.36133 0.540919 8.486 0.349098 8.66147 0.211963C8.83693 0.074827 9.05313 0.000228643 9.27579 0H10.7131C10.936 5.86043e-06 11.1524 0.0745022 11.3281 0.211655C11.5037 0.348809 11.6285 0.540753 11.6827 0.757L12.2025 2.83ZM9.99546 14C11.0558 14 12.0728 13.5786 12.8226 12.8284C13.5724 12.0783 13.9936 11.0609 13.9936 10C13.9936 8.93913 13.5724 7.92172 12.8226 7.17157C12.0728 6.42143 11.0558 6 9.99546 6C8.93508 6 7.91812 6.42143 7.16832 7.17157C6.41851 7.92172 5.99728 8.93913 5.99728 10C5.99728 11.0609 6.41851 12.0783 7.16832 12.8284C7.91812 13.5786 8.93508 14 9.99546 14Z" fill="#524CC4"/>
</svg>
