<svg width="832" height="597" viewBox="0 0 832 597" fill="none" xmlns="http://www.w3.org/2000/svg">
<g filter="url(#filter0_ddi_1_943)">
<g clip-path="url(#clip0_1_943)">
<rect x="80" y="80" width="672" height="437" rx="8" fill="#0A0510"/>
<g opacity="0.3" style="mix-blend-mode:overlay">
<rect x="84" y="84" width="664" height="435" fill="url(#paint0_linear_1_943)"/>
<rect x="84" y="84" width="664" height="435" fill="url(#paint1_linear_1_943)"/>
</g>
<path d="M109.732 106.196C108.5 106.196 107.52 105.86 106.792 105.188C106.064 104.507 105.7 103.536 105.7 102.276V99.924C105.7 98.664 106.064 97.698 106.792 97.026C107.52 96.3447 108.5 96.004 109.732 96.004C110.964 96.004 111.944 96.3447 112.672 97.026C113.4 97.698 113.764 98.664 113.764 99.924V102.276C113.764 103.536 113.4 104.507 112.672 105.188C111.944 105.86 110.964 106.196 109.732 106.196ZM109.732 104.544C110.423 104.544 110.959 104.343 111.342 103.942C111.725 103.541 111.916 103.004 111.916 102.332V99.868C111.916 99.196 111.725 98.6593 111.342 98.258C110.959 97.8567 110.423 97.656 109.732 97.656C109.051 97.656 108.514 97.8567 108.122 98.258C107.739 98.6593 107.548 99.196 107.548 99.868V102.332C107.548 103.004 107.739 103.541 108.122 103.942C108.514 104.343 109.051 104.544 109.732 104.544ZM116.085 106V96.2H120.341C120.957 96.2 121.494 96.3073 121.951 96.522C122.408 96.7367 122.763 97.04 123.015 97.432C123.267 97.824 123.393 98.286 123.393 98.818V98.986C123.393 99.574 123.253 100.05 122.973 100.414C122.693 100.778 122.348 101.044 121.937 101.212V101.464C122.31 101.483 122.6 101.613 122.805 101.856C123.01 102.089 123.113 102.402 123.113 102.794V106H121.265V103.06C121.265 102.836 121.204 102.654 121.083 102.514C120.971 102.374 120.78 102.304 120.509 102.304H117.933V106H116.085ZM117.933 100.624H120.145C120.584 100.624 120.924 100.507 121.167 100.274C121.419 100.031 121.545 99.714 121.545 99.322V99.182C121.545 98.79 121.424 98.4773 121.181 98.244C120.938 98.0013 120.593 97.88 120.145 97.88H117.933V100.624ZM124.959 106L127.535 96.2H130.755L133.331 106H131.427L130.895 103.844H127.395L126.863 106H124.959ZM127.829 102.136H130.461L129.271 97.362H129.019L127.829 102.136ZM138.846 106.196C137.632 106.196 136.671 105.86 135.962 105.188C135.252 104.507 134.898 103.536 134.898 102.276V99.924C134.898 98.664 135.252 97.698 135.962 97.026C136.671 96.3447 137.632 96.004 138.846 96.004C140.05 96.004 140.978 96.3353 141.632 96.998C142.294 97.6513 142.626 98.552 142.626 99.7V99.784H140.806V99.644C140.806 99.0653 140.642 98.5893 140.316 98.216C139.998 97.8427 139.508 97.656 138.846 97.656C138.192 97.656 137.679 97.8567 137.306 98.258C136.932 98.6593 136.746 99.2053 136.746 99.896V102.304C136.746 102.985 136.932 103.531 137.306 103.942C137.679 104.343 138.192 104.544 138.846 104.544C139.508 104.544 139.998 104.357 140.316 103.984C140.642 103.601 140.806 103.125 140.806 102.556V102.304H142.626V102.5C142.626 103.648 142.294 104.553 141.632 105.216C140.978 105.869 140.05 106.196 138.846 106.196ZM144.831 106V96.2H146.679V104.32H151.159V106H144.831ZM153.119 106V96.2H159.419V97.88H154.967V100.218H159.027V101.898H154.967V104.32H159.503V106H153.119ZM161.557 108.268V106.672H168.417V108.268H161.557ZM170.953 106V96.2H172.801V106H170.953ZM175.344 106V96.2H178.858L180.804 104.74H181.056V96.2H182.876V106H179.362L177.416 97.46H177.164V106H175.344ZM187.691 106V97.88H184.835V96.2H192.395V97.88H189.539V106H187.691ZM194.354 106V96.2H200.654V97.88H196.202V100.218H200.262V101.898H196.202V104.32H200.738V106H194.354ZM202.806 106V96.2H204.654V104.32H209.134V106H202.806ZM213.776 108.8L217.892 96.2H219.656L215.54 108.8H213.776ZM219.904 108.8L224.02 96.2H225.784L221.668 108.8H219.904ZM231.155 106V104.376H232.443V97.824H231.155V96.2H236.195C236.792 96.2 237.31 96.3027 237.749 96.508C238.197 96.704 238.542 96.9887 238.785 97.362C239.037 97.726 239.163 98.1647 239.163 98.678V98.818C239.163 99.266 239.079 99.6347 238.911 99.924C238.743 100.204 238.542 100.423 238.309 100.582C238.085 100.731 237.87 100.839 237.665 100.904V101.156C237.87 101.212 238.094 101.319 238.337 101.478C238.579 101.627 238.785 101.847 238.953 102.136C239.13 102.425 239.219 102.803 239.219 103.27V103.41C239.219 103.951 239.093 104.418 238.841 104.81C238.589 105.193 238.239 105.487 237.791 105.692C237.352 105.897 236.839 106 236.251 106H231.155ZM234.291 104.32H236.027C236.428 104.32 236.75 104.222 236.993 104.026C237.245 103.83 237.371 103.55 237.371 103.186V103.046C237.371 102.682 237.249 102.402 237.007 102.206C236.764 102.01 236.437 101.912 236.027 101.912H234.291V104.32ZM234.291 100.232H235.999C236.381 100.232 236.694 100.134 236.937 99.938C237.189 99.742 237.315 99.4713 237.315 99.126V98.986C237.315 98.6313 237.193 98.3607 236.951 98.174C236.708 97.978 236.391 97.88 235.999 97.88H234.291V100.232ZM241.431 106V96.2H245.687C246.303 96.2 246.84 96.3073 247.297 96.522C247.755 96.7367 248.109 97.04 248.361 97.432C248.613 97.824 248.739 98.286 248.739 98.818V98.986C248.739 99.574 248.599 100.05 248.319 100.414C248.039 100.778 247.694 101.044 247.283 101.212V101.464C247.657 101.483 247.946 101.613 248.151 101.856C248.357 102.089 248.459 102.402 248.459 102.794V106H246.611V103.06C246.611 102.836 246.551 102.654 246.429 102.514C246.317 102.374 246.126 102.304 245.855 102.304H243.279V106H241.431ZM243.279 100.624H245.491C245.93 100.624 246.271 100.507 246.513 100.274C246.765 100.031 246.891 99.714 246.891 99.322V99.182C246.891 98.79 246.77 98.4773 246.527 98.244C246.285 98.0013 245.939 97.88 245.491 97.88H243.279V100.624ZM250.977 106V96.2H257.277V97.88H252.825V100.218H256.885V101.898H252.825V104.32H257.361V106H250.977ZM258.757 106L261.333 96.2H264.553L267.129 106H265.225L264.693 103.844H261.193L260.661 106H258.757ZM261.627 102.136H264.259L263.069 97.362H262.817L261.627 102.136ZM272.644 106.196C271.431 106.196 270.469 105.86 269.76 105.188C269.051 104.507 268.696 103.536 268.696 102.276V99.924C268.696 98.664 269.051 97.698 269.76 97.026C270.469 96.3447 271.431 96.004 272.644 96.004C273.848 96.004 274.777 96.3353 275.43 96.998C276.093 97.6513 276.424 98.552 276.424 99.7V99.784H274.604V99.644C274.604 99.0653 274.441 98.5893 274.114 98.216C273.797 97.8427 273.307 97.656 272.644 97.656C271.991 97.656 271.477 97.8567 271.104 98.258C270.731 98.6593 270.544 99.2053 270.544 99.896V102.304C270.544 102.985 270.731 103.531 271.104 103.942C271.477 104.343 271.991 104.544 272.644 104.544C273.307 104.544 273.797 104.357 274.114 103.984C274.441 103.601 274.604 103.125 274.604 102.556V102.304H276.424V102.5C276.424 103.648 276.093 104.553 275.43 105.216C274.777 105.869 273.848 106.196 272.644 106.196ZM278.63 106V96.2H280.478V100.246H284.118V96.2H285.966V106H284.118V101.926H280.478V106H278.63ZM288.503 108.268V106.672H295.363V108.268H288.503ZM301.707 106.196C300.475 106.196 299.495 105.86 298.767 105.188C298.039 104.507 297.675 103.536 297.675 102.276V99.924C297.675 98.664 298.039 97.698 298.767 97.026C299.495 96.3447 300.475 96.004 301.707 96.004C302.939 96.004 303.919 96.3447 304.647 97.026C305.375 97.698 305.739 98.664 305.739 99.924V102.276C305.739 103.536 305.375 104.507 304.647 105.188C303.919 105.86 302.939 106.196 301.707 106.196ZM301.707 104.544C302.398 104.544 302.934 104.343 303.317 103.942C303.7 103.541 303.891 103.004 303.891 102.332V99.868C303.891 99.196 303.7 98.6593 303.317 98.258C302.934 97.8567 302.398 97.656 301.707 97.656C301.026 97.656 300.489 97.8567 300.097 98.258C299.714 98.6593 299.523 99.196 299.523 99.868V102.332C299.523 103.004 299.714 103.541 300.097 103.942C300.489 104.343 301.026 104.544 301.707 104.544ZM309.689 106L307.197 96.2H309.101L311.173 104.81H311.369L313.441 96.2H315.345L312.853 106H309.689ZM317.223 106V96.2H323.523V97.88H319.071V100.218H323.131V101.898H319.071V104.32H323.607V106H317.223ZM325.675 106V96.2H329.931C330.547 96.2 331.083 96.3073 331.541 96.522C331.998 96.7367 332.353 97.04 332.605 97.432C332.857 97.824 332.983 98.286 332.983 98.818V98.986C332.983 99.574 332.843 100.05 332.563 100.414C332.283 100.778 331.937 101.044 331.527 101.212V101.464C331.9 101.483 332.189 101.613 332.395 101.856C332.6 102.089 332.703 102.402 332.703 102.794V106H330.855V103.06C330.855 102.836 330.794 102.654 330.673 102.514C330.561 102.374 330.369 102.304 330.099 102.304H327.523V106H325.675ZM327.523 100.624H329.735C330.173 100.624 330.514 100.507 330.757 100.274C331.009 100.031 331.135 99.714 331.135 99.322V99.182C331.135 98.79 331.013 98.4773 330.771 98.244C330.528 98.0013 330.183 97.88 329.735 97.88H327.523V100.624ZM335.22 106V96.2H339.476C340.092 96.2 340.629 96.3073 341.086 96.522C341.544 96.7367 341.898 97.04 342.15 97.432C342.402 97.824 342.528 98.286 342.528 98.818V98.986C342.528 99.574 342.388 100.05 342.108 100.414C341.828 100.778 341.483 101.044 341.072 101.212V101.464C341.446 101.483 341.735 101.613 341.94 101.856C342.146 102.089 342.248 102.402 342.248 102.794V106H340.4V103.06C340.4 102.836 340.34 102.654 340.218 102.514C340.106 102.374 339.915 102.304 339.644 102.304H337.068V106H335.22ZM337.068 100.624H339.28C339.719 100.624 340.06 100.507 340.302 100.274C340.554 100.031 340.68 99.714 340.68 99.322V99.182C340.68 98.79 340.559 98.4773 340.316 98.244C340.074 98.0013 339.728 97.88 339.28 97.88H337.068V100.624ZM344.766 106V96.2H346.614V106H344.766ZM348.878 106V104.376H350.166V97.824H348.878V96.2H352.91C354.226 96.2 355.224 96.536 355.906 97.208C356.596 97.8707 356.942 98.86 356.942 100.176V102.024C356.942 103.34 356.596 104.334 355.906 105.006C355.224 105.669 354.226 106 352.91 106H348.878ZM352.014 104.32H352.938C353.684 104.32 354.23 104.124 354.576 103.732C354.921 103.34 355.094 102.789 355.094 102.08V100.12C355.094 99.4013 354.921 98.8507 354.576 98.468C354.23 98.076 353.684 97.88 352.938 97.88H352.014V104.32ZM359.182 106V96.2H365.482V97.88H361.03V100.218H365.09V101.898H361.03V104.32H365.566V106H359.182Z" fill="#9D00FF"/>
<g filter="url(#filter1_d_1_943)">
<rect width="10" height="10" rx="5" transform="matrix(-1 0 0 1 743 90)" fill="#F0FF00"/>
</g>
<g filter="url(#filter2_d_1_943)">
<path d="M81 122C92.1833 122.067 103.367 122.13 114.55 122.19C215.2 122.73 315.85 123 416.5 123C517.15 123 617.8 122.73 718.45 122.19C729.633 122.13 740.817 122.067 752 122C740.817 121.933 729.633 121.87 718.45 121.81C617.8 121.27 517.15 121 416.5 121C315.85 121 215.2 121.27 114.55 121.81C103.367 121.87 92.1833 121.933 81 122Z" fill="url(#paint2_linear_1_943)"/>
</g>
<g filter="url(#filter3_dd_1_943)">
<path d="M145.885 219.396C145.105 219.396 144.464 219.145 143.961 218.642C143.476 218.157 143.233 217.524 143.233 216.744V195.996C143.233 195.216 143.476 194.583 143.961 194.098C144.464 193.595 145.105 193.344 145.885 193.344H150.305V196.152H147.107C146.639 196.152 146.405 196.412 146.405 196.932V215.808C146.405 216.328 146.639 216.588 147.107 216.588H150.305V219.396H145.885ZM157.565 213.364C156.161 213.364 154.922 213.113 153.847 212.61C152.773 212.107 151.932 211.388 151.325 210.452C150.719 209.516 150.415 208.389 150.415 207.072V206.344H153.795V207.072C153.795 208.164 154.133 208.987 154.809 209.542C155.485 210.079 156.404 210.348 157.565 210.348C158.744 210.348 159.619 210.114 160.191 209.646C160.781 209.178 161.075 208.58 161.075 207.852C161.075 207.349 160.928 206.942 160.633 206.63C160.356 206.318 159.94 206.067 159.385 205.876C158.848 205.668 158.189 205.477 157.409 205.304L156.811 205.174C155.563 204.897 154.489 204.55 153.587 204.134C152.703 203.701 152.019 203.137 151.533 202.444C151.065 201.751 150.831 200.849 150.831 199.74C150.831 198.631 151.091 197.686 151.611 196.906C152.149 196.109 152.894 195.502 153.847 195.086C154.818 194.653 155.953 194.436 157.253 194.436C158.553 194.436 159.706 194.661 160.711 195.112C161.734 195.545 162.531 196.204 163.103 197.088C163.693 197.955 163.987 199.047 163.987 200.364V201.144H160.607V200.364C160.607 199.671 160.469 199.116 160.191 198.7C159.931 198.267 159.55 197.955 159.047 197.764C158.545 197.556 157.947 197.452 157.253 197.452C156.213 197.452 155.442 197.651 154.939 198.05C154.454 198.431 154.211 198.96 154.211 199.636C154.211 200.087 154.324 200.468 154.549 200.78C154.792 201.092 155.147 201.352 155.615 201.56C156.083 201.768 156.681 201.95 157.409 202.106L158.007 202.236C159.307 202.513 160.434 202.869 161.387 203.302C162.358 203.735 163.112 204.307 163.649 205.018C164.187 205.729 164.455 206.639 164.455 207.748C164.455 208.857 164.169 209.837 163.597 210.686C163.043 211.518 162.245 212.177 161.205 212.662C160.183 213.13 158.969 213.364 157.565 213.364ZM169.936 213V206.734L163.748 194.8H167.57L171.418 202.6H171.886L175.734 194.8H179.556L173.368 206.734V213H169.936ZM186.091 213.364C184.687 213.364 183.448 213.113 182.373 212.61C181.298 212.107 180.458 211.388 179.851 210.452C179.244 209.516 178.941 208.389 178.941 207.072V206.344H182.321V207.072C182.321 208.164 182.659 208.987 183.335 209.542C184.011 210.079 184.93 210.348 186.091 210.348C187.27 210.348 188.145 210.114 188.717 209.646C189.306 209.178 189.601 208.58 189.601 207.852C189.601 207.349 189.454 206.942 189.159 206.63C188.882 206.318 188.466 206.067 187.911 205.876C187.374 205.668 186.715 205.477 185.935 205.304L185.337 205.174C184.089 204.897 183.014 204.55 182.113 204.134C181.229 203.701 180.544 203.137 180.059 202.444C179.591 201.751 179.357 200.849 179.357 199.74C179.357 198.631 179.617 197.686 180.137 196.906C180.674 196.109 181.42 195.502 182.373 195.086C183.344 194.653 184.479 194.436 185.779 194.436C187.079 194.436 188.232 194.661 189.237 195.112C190.26 195.545 191.057 196.204 191.629 197.088C192.218 197.955 192.513 199.047 192.513 200.364V201.144H189.133V200.364C189.133 199.671 188.994 199.116 188.717 198.7C188.457 198.267 188.076 197.955 187.573 197.764C187.07 197.556 186.472 197.452 185.779 197.452C184.739 197.452 183.968 197.651 183.465 198.05C182.98 198.431 182.737 198.96 182.737 199.636C182.737 200.087 182.85 200.468 183.075 200.78C183.318 201.092 183.673 201.352 184.141 201.56C184.609 201.768 185.207 201.95 185.935 202.106L186.533 202.236C187.833 202.513 188.96 202.869 189.913 203.302C190.884 203.735 191.638 204.307 192.175 205.018C192.712 205.729 192.981 206.639 192.981 207.748C192.981 208.857 192.695 209.837 192.123 210.686C191.568 211.518 190.771 212.177 189.731 212.662C188.708 213.13 187.495 213.364 186.091 213.364ZM197.969 213V197.92H192.665V194.8H206.705V197.92H201.401V213H197.969ZM207.842 213V194.8H219.542V197.92H211.274V202.262H218.814V205.382H211.274V209.88H219.698V213H207.842ZM221.038 213V194.8H227.408L230.554 210.66H231.022L234.168 194.8H240.538V213H237.21V197.322H236.742L233.622 213H227.954L224.834 197.322H224.366V213H221.038ZM242.74 217.212V214.248H255.48V217.212H242.74ZM256.441 213L261.225 194.8H267.205L271.989 213H268.453L267.465 208.996H260.965L259.977 213H256.441ZM261.771 205.824H266.659L264.449 196.958H263.981L261.771 205.824ZM272.968 213V194.8H276.4V209.88H284.72V213H272.968ZM285.859 213V194.8H297.559V197.92H289.291V202.262H296.831V205.382H289.291V209.88H297.715V213H285.859ZM299.056 213V194.8H306.96C308.104 194.8 309.101 194.999 309.95 195.398C310.799 195.797 311.458 196.36 311.926 197.088C312.394 197.816 312.628 198.674 312.628 199.662V199.974C312.628 201.066 312.368 201.95 311.848 202.626C311.328 203.302 310.687 203.796 309.924 204.108V204.576C310.617 204.611 311.155 204.853 311.536 205.304C311.917 205.737 312.108 206.318 312.108 207.046V213H308.676V207.54C308.676 207.124 308.563 206.786 308.338 206.526C308.13 206.266 307.775 206.136 307.272 206.136H302.488V213H299.056ZM302.488 203.016H306.596C307.411 203.016 308.043 202.799 308.494 202.366C308.962 201.915 309.196 201.326 309.196 200.598V200.338C309.196 199.61 308.971 199.029 308.52 198.596C308.069 198.145 307.428 197.92 306.596 197.92H302.488V203.016ZM318.191 213V197.92H312.887V194.8H326.927V197.92H321.623V213H318.191ZM326.764 219.396V216.588H329.962C330.43 216.588 330.664 216.328 330.664 215.808V196.932C330.664 196.412 330.43 196.152 329.962 196.152H326.764V193.344H331.184C331.964 193.344 332.597 193.595 333.082 194.098C333.585 194.583 333.836 195.216 333.836 195.996V216.744C333.836 217.524 333.585 218.157 333.082 218.642C332.597 219.145 331.964 219.396 331.184 219.396H326.764ZM338.34 213.364C337.647 213.364 337.058 213.139 336.572 212.688C336.104 212.22 335.87 211.622 335.87 210.894C335.87 210.166 336.104 209.577 336.572 209.126C337.058 208.658 337.647 208.424 338.34 208.424C339.051 208.424 339.64 208.658 340.108 209.126C340.576 209.577 340.81 210.166 340.81 210.894C340.81 211.622 340.576 212.22 340.108 212.688C339.64 213.139 339.051 213.364 338.34 213.364ZM338.34 204.68C337.647 204.68 337.058 204.455 336.572 204.004C336.104 203.536 335.87 202.938 335.87 202.21C335.87 201.482 336.104 200.893 336.572 200.442C337.058 199.974 337.647 199.74 338.34 199.74C339.051 199.74 339.64 199.974 340.108 200.442C340.576 200.893 340.81 201.482 340.81 202.21C340.81 202.938 340.576 203.536 340.108 204.004C339.64 204.455 339.051 204.68 338.34 204.68ZM351.203 213L346.575 194.8H350.111L353.959 210.79H354.323L358.171 194.8H361.707L357.079 213H351.203ZM362.696 213V194.8H374.396V197.92H366.128V202.262H373.668V205.382H366.128V209.88H374.552V213H362.696ZM382.808 213.364C380.555 213.364 378.77 212.74 377.452 211.492C376.135 210.227 375.476 208.424 375.476 206.084V201.716C375.476 199.376 376.135 197.582 377.452 196.334C378.77 195.069 380.555 194.436 382.808 194.436C385.044 194.436 386.769 195.051 387.982 196.282C389.213 197.495 389.828 199.168 389.828 201.3V201.456H386.448V201.196C386.448 200.121 386.145 199.237 385.538 198.544C384.949 197.851 384.039 197.504 382.808 197.504C381.595 197.504 380.642 197.877 379.948 198.622C379.255 199.367 378.908 200.381 378.908 201.664V206.136C378.908 207.401 379.255 208.415 379.948 209.178C380.642 209.923 381.595 210.296 382.808 210.296C384.039 210.296 384.949 209.949 385.538 209.256C386.145 208.545 386.448 207.661 386.448 206.604V206.136H389.828V206.5C389.828 208.632 389.213 210.313 387.982 211.544C386.769 212.757 385.044 213.364 382.808 213.364ZM395.281 213V197.92H389.977V194.8H404.017V197.92H398.713V213H395.281ZM411.49 213.364C409.202 213.364 407.382 212.74 406.03 211.492C404.678 210.227 404.002 208.424 404.002 206.084V201.716C404.002 199.376 404.678 197.582 406.03 196.334C407.382 195.069 409.202 194.436 411.49 194.436C413.778 194.436 415.598 195.069 416.95 196.334C418.302 197.582 418.978 199.376 418.978 201.716V206.084C418.978 208.424 418.302 210.227 416.95 211.492C415.598 212.74 413.778 213.364 411.49 213.364ZM411.49 210.296C412.773 210.296 413.769 209.923 414.48 209.178C415.191 208.433 415.546 207.436 415.546 206.188V201.612C415.546 200.364 415.191 199.367 414.48 198.622C413.769 197.877 412.773 197.504 411.49 197.504C410.225 197.504 409.228 197.877 408.5 198.622C407.789 199.367 407.434 200.364 407.434 201.612V206.188C407.434 207.436 407.789 208.433 408.5 209.178C409.228 209.923 410.225 210.296 411.49 210.296ZM420.788 213V194.8H428.692C429.836 194.8 430.833 194.999 431.682 195.398C432.532 195.797 433.19 196.36 433.658 197.088C434.126 197.816 434.36 198.674 434.36 199.662V199.974C434.36 201.066 434.1 201.95 433.58 202.626C433.06 203.302 432.419 203.796 431.656 204.108V204.576C432.35 204.611 432.887 204.853 433.268 205.304C433.65 205.737 433.84 206.318 433.84 207.046V213H430.408V207.54C430.408 207.124 430.296 206.786 430.07 206.526C429.862 206.266 429.507 206.136 429.004 206.136H424.22V213H420.788ZM424.22 203.016H428.328C429.143 203.016 429.776 202.799 430.226 202.366C430.694 201.915 430.928 201.326 430.928 200.598V200.338C430.928 199.61 430.703 199.029 430.252 198.596C429.802 198.145 429.16 197.92 428.328 197.92H424.22V203.016ZM436.068 207.852V204.888H443.764V207.852H436.068ZM445.519 213V209.984H447.911V197.816H445.519V194.8H453.007C455.451 194.8 457.305 195.424 458.571 196.672C459.853 197.903 460.495 199.74 460.495 202.184V205.616C460.495 208.06 459.853 209.906 458.571 211.154C457.305 212.385 455.451 213 453.007 213H445.519ZM451.343 209.88H453.059C454.445 209.88 455.459 209.516 456.101 208.788C456.742 208.06 457.063 207.037 457.063 205.72V202.08C457.063 200.745 456.742 199.723 456.101 199.012C455.459 198.284 454.445 197.92 453.059 197.92H451.343V209.88ZM460.755 213L465.539 194.8H471.519L476.303 213H472.767L471.779 208.996H465.279L464.291 213H460.755ZM466.085 205.824H470.973L468.763 196.958H468.295L466.085 205.824ZM480.082 213V206.734L473.894 194.8H477.716L481.564 202.6H482.032L485.88 194.8H489.702L483.514 206.734V213H480.082ZM494.639 213V197.92H489.335V194.8H503.375V197.92H498.071V213H494.639ZM510.848 213.364C508.56 213.364 506.74 212.74 505.388 211.492C504.036 210.227 503.36 208.424 503.36 206.084V201.716C503.36 199.376 504.036 197.582 505.388 196.334C506.74 195.069 508.56 194.436 510.848 194.436C513.136 194.436 514.956 195.069 516.308 196.334C517.66 197.582 518.336 199.376 518.336 201.716V206.084C518.336 208.424 517.66 210.227 516.308 211.492C514.956 212.74 513.136 213.364 510.848 213.364ZM510.848 210.296C512.13 210.296 513.127 209.923 513.838 209.178C514.548 208.433 514.904 207.436 514.904 206.188V201.612C514.904 200.364 514.548 199.367 513.838 198.622C513.127 197.877 512.13 197.504 510.848 197.504C509.582 197.504 508.586 197.877 507.858 198.622C507.147 199.367 506.792 200.364 506.792 201.612V206.188C506.792 207.436 507.147 208.433 507.858 209.178C508.586 209.923 509.582 210.296 510.848 210.296ZM520.146 213V194.8H526.672L530.286 210.66H530.754V194.8H534.134V213H527.608L523.994 197.14H523.526V213H520.146ZM541.766 213V194.8H545.198V213H541.766ZM547.421 213V194.8H553.947L557.561 210.66H558.029V194.8H561.409V213H554.883L551.269 197.14H550.801V213H547.421ZM567.851 213V197.92H562.547V194.8H576.587V197.92H571.283V213H567.851ZM577.724 213V194.8H589.424V197.92H581.156V202.262H588.696V205.382H581.156V209.88H589.58V213H577.724ZM590.921 213V194.8H598.825C599.969 194.8 600.965 194.999 601.815 195.398C602.664 195.797 603.323 196.36 603.791 197.088C604.259 197.816 604.493 198.674 604.493 199.662V199.974C604.493 201.066 604.233 201.95 603.713 202.626C603.193 203.302 602.551 203.796 601.789 204.108V204.576C602.482 204.611 603.019 204.853 603.401 205.304C603.782 205.737 603.973 206.318 603.973 207.046V213H600.541V207.54C600.541 207.124 600.428 206.786 600.203 206.526C599.995 206.266 599.639 206.136 599.137 206.136H594.353V213H590.921ZM594.353 203.016H598.461C599.275 203.016 599.908 202.799 600.359 202.366C600.827 201.915 601.061 201.326 601.061 200.598V200.338C601.061 199.61 600.835 199.029 600.385 198.596C599.934 198.145 599.293 197.92 598.461 197.92H594.353V203.016ZM606.2 207.852V204.888H613.896V207.852H606.2ZM623.243 213.364C620.955 213.364 619.135 212.74 617.783 211.492C616.431 210.227 615.755 208.424 615.755 206.084V201.716C615.755 199.376 616.431 197.582 617.783 196.334C619.135 195.069 620.955 194.436 623.243 194.436C625.531 194.436 627.351 195.069 628.703 196.334C630.055 197.582 630.731 199.376 630.731 201.716V206.084C630.731 208.424 630.055 210.227 628.703 211.492C627.351 212.74 625.531 213.364 623.243 213.364ZM623.243 210.296C624.526 210.296 625.522 209.923 626.233 209.178C626.944 208.433 627.299 207.436 627.299 206.188V201.612C627.299 200.364 626.944 199.367 626.233 198.622C625.522 197.877 624.526 197.504 623.243 197.504C621.978 197.504 620.981 197.877 620.253 198.622C619.542 199.367 619.187 200.364 619.187 201.612V206.188C619.187 207.436 619.542 208.433 620.253 209.178C620.981 209.923 621.978 210.296 623.243 210.296ZM632.541 213V194.8H643.981V197.92H635.973V202.314H643.357V205.434H635.973V213H632.541ZM645.23 213V194.8H656.67V197.92H648.662V202.314H656.046V205.434H648.662V213H645.23ZM657.919 213V194.8H661.351V213H657.919ZM670.49 213.364C668.237 213.364 666.452 212.74 665.134 211.492C663.817 210.227 663.158 208.424 663.158 206.084V201.716C663.158 199.376 663.817 197.582 665.134 196.334C666.452 195.069 668.237 194.436 670.49 194.436C672.726 194.436 674.451 195.051 675.664 196.282C676.895 197.495 677.51 199.168 677.51 201.3V201.456H674.13V201.196C674.13 200.121 673.827 199.237 673.22 198.544C672.631 197.851 671.721 197.504 670.49 197.504C669.277 197.504 668.324 197.877 667.63 198.622C666.937 199.367 666.59 200.381 666.59 201.664V206.136C666.59 207.401 666.937 208.415 667.63 209.178C668.324 209.923 669.277 210.296 670.49 210.296C671.721 210.296 672.631 209.949 673.22 209.256C673.827 208.545 674.13 207.661 674.13 206.604V206.136H677.51V206.5C677.51 208.632 676.895 210.313 675.664 211.544C674.451 212.757 672.726 213.364 670.49 213.364ZM679.107 213V194.8H690.807V197.92H682.539V202.262H690.079V205.382H682.539V209.88H690.963V213H679.107ZM144.239 249V230.8H150.609L153.755 246.66H154.223L157.369 230.8H163.739V249H160.411V233.322H159.943L156.823 249H151.155L148.035 233.322H147.567V249H144.239ZM165.967 249V230.8H177.667V233.92H169.399V238.262H176.939V241.382H169.399V245.88H177.823V249H165.967ZM179.164 249V230.8H185.534L188.68 246.66H189.148L192.294 230.8H198.664V249H195.336V233.322H194.868L191.748 249H186.08L182.96 233.322H182.492V249H179.164ZM207.963 249.364C205.675 249.364 203.855 248.74 202.503 247.492C201.151 246.227 200.475 244.424 200.475 242.084V237.716C200.475 235.376 201.151 233.582 202.503 232.334C203.855 231.069 205.675 230.436 207.963 230.436C210.251 230.436 212.071 231.069 213.423 232.334C214.775 233.582 215.451 235.376 215.451 237.716V242.084C215.451 244.424 214.775 246.227 213.423 247.492C212.071 248.74 210.251 249.364 207.963 249.364ZM207.963 246.296C209.246 246.296 210.243 245.923 210.953 245.178C211.664 244.433 212.019 243.436 212.019 242.188V237.612C212.019 236.364 211.664 235.367 210.953 234.622C210.243 233.877 209.246 233.504 207.963 233.504C206.698 233.504 205.701 233.877 204.973 234.622C204.263 235.367 203.907 236.364 203.907 237.612V242.188C203.907 243.436 204.263 244.433 204.973 245.178C205.701 245.923 206.698 246.296 207.963 246.296ZM222.663 249V230.8H226.095V245.88H234.415V249H222.663ZM235.555 249V230.8H247.255V233.92H238.987V238.262H246.527V241.382H238.987V245.88H247.411V249H235.555ZM247.504 249L252.288 230.8H258.268L263.052 249H259.516L258.528 244.996H252.028L251.04 249H247.504ZM252.834 241.824H257.722L255.512 232.958H255.044L252.834 241.824ZM264.03 249V230.8H267.462V238.028H267.93L273.832 230.8H278.226L270.634 239.77L278.486 249H273.962L267.93 241.616H267.462V249H264.03ZM279.105 249V230.8H290.805V233.92H282.537V238.262H290.077V241.382H282.537V245.88H290.961V249H279.105ZM291.782 249V245.984H294.174V233.816H291.782V230.8H299.27C301.714 230.8 303.569 231.424 304.834 232.672C306.117 233.903 306.758 235.74 306.758 238.184V241.616C306.758 244.06 306.117 245.906 304.834 247.154C303.569 248.385 301.714 249 299.27 249H291.782ZM297.606 245.88H299.322C300.709 245.88 301.723 245.516 302.364 244.788C303.005 244.06 303.326 243.037 303.326 241.72V238.08C303.326 236.745 303.005 235.723 302.364 235.012C301.723 234.284 300.709 233.92 299.322 233.92H297.606V245.88ZM311.688 254.2L319.332 230.8H322.608L314.964 254.2H311.688ZM320.568 254.2L328.212 230.8H331.488L323.844 254.2H320.568ZM342.721 238.782V237.014H343.735C344.533 237.014 344.931 236.615 344.931 235.818V234.986H344.489C343.796 234.986 343.215 234.778 342.747 234.362C342.297 233.946 342.071 233.417 342.071 232.776C342.071 232.083 342.297 231.519 342.747 231.086C343.215 230.653 343.796 230.436 344.489 230.436C345.2 230.436 345.781 230.661 346.231 231.112C346.682 231.545 346.907 232.135 346.907 232.88V235.87C346.907 237.811 345.937 238.782 343.995 238.782H342.721ZM348.441 238.782V237.014H349.455C350.253 237.014 350.651 236.615 350.651 235.818V234.986H350.209C349.516 234.986 348.935 234.778 348.467 234.362C348.017 233.946 347.791 233.417 347.791 232.776C347.791 232.083 348.017 231.519 348.467 231.086C348.935 230.653 349.516 230.436 350.209 230.436C350.92 230.436 351.501 230.661 351.951 231.112C352.402 231.545 352.627 232.135 352.627 232.88V235.87C352.627 237.811 351.657 238.782 349.715 238.782H348.441ZM354.539 249V230.8H362.027C363.171 230.8 364.176 231.034 365.043 231.502C365.927 231.953 366.611 232.594 367.097 233.426C367.599 234.258 367.851 235.246 367.851 236.39V236.754C367.851 237.881 367.591 238.869 367.071 239.718C366.568 240.55 365.875 241.2 364.991 241.668C364.124 242.119 363.136 242.344 362.027 242.344H357.971V249H354.539ZM357.971 239.224H361.689C362.503 239.224 363.162 238.999 363.665 238.548C364.167 238.097 364.419 237.482 364.419 236.702V236.442C364.419 235.662 364.167 235.047 363.665 234.596C363.162 234.145 362.503 233.92 361.689 233.92H357.971V239.224ZM369.03 249V230.8H376.934C378.078 230.8 379.075 230.999 379.924 231.398C380.773 231.797 381.432 232.36 381.9 233.088C382.368 233.816 382.602 234.674 382.602 235.662V235.974C382.602 237.066 382.342 237.95 381.822 238.626C381.302 239.302 380.661 239.796 379.898 240.108V240.576C380.591 240.611 381.129 240.853 381.51 241.304C381.891 241.737 382.082 242.318 382.082 243.046V249H378.65V243.54C378.65 243.124 378.537 242.786 378.312 242.526C378.104 242.266 377.749 242.136 377.246 242.136H372.462V249H369.03ZM372.462 239.016H376.57C377.385 239.016 378.017 238.799 378.468 238.366C378.936 237.915 379.17 237.326 379.17 236.598V236.338C379.17 235.61 378.945 235.029 378.494 234.596C378.043 234.145 377.402 233.92 376.57 233.92H372.462V239.016ZM391.33 249.364C389.042 249.364 387.222 248.74 385.87 247.492C384.518 246.227 383.842 244.424 383.842 242.084V237.716C383.842 235.376 384.518 233.582 385.87 232.334C387.222 231.069 389.042 230.436 391.33 230.436C393.618 230.436 395.438 231.069 396.79 232.334C398.142 233.582 398.818 235.376 398.818 237.716V242.084C398.818 244.424 398.142 246.227 396.79 247.492C395.438 248.74 393.618 249.364 391.33 249.364ZM391.33 246.296C392.612 246.296 393.609 245.923 394.32 245.178C395.03 244.433 395.386 243.436 395.386 242.188V237.612C395.386 236.364 395.03 235.367 394.32 234.622C393.609 233.877 392.612 233.504 391.33 233.504C390.064 233.504 389.068 233.877 388.34 234.622C387.629 235.367 387.274 236.364 387.274 237.612V242.188C387.274 243.436 387.629 244.433 388.34 245.178C389.068 245.923 390.064 246.296 391.33 246.296ZM405.854 249.364C403.982 249.364 402.491 248.853 401.382 247.83C400.29 246.807 399.744 245.377 399.744 243.54V241.824H403.176V243.54C403.176 244.355 403.401 244.996 403.852 245.464C404.303 245.915 404.935 246.14 405.75 246.14C406.513 246.14 407.102 245.915 407.518 245.464C407.951 245.013 408.168 244.372 408.168 243.54V233.92H405.048V230.8H413.68V233.92H411.6V243.54C411.6 245.429 411.089 246.877 410.066 247.882C409.043 248.87 407.639 249.364 405.854 249.364ZM415.297 249V230.8H426.997V233.92H418.729V238.262H426.269V241.382H418.729V245.88H427.153V249H415.297ZM435.41 249.364C433.156 249.364 431.371 248.74 430.054 247.492C428.736 246.227 428.078 244.424 428.078 242.084V237.716C428.078 235.376 428.736 233.582 430.054 232.334C431.371 231.069 433.156 230.436 435.41 230.436C437.646 230.436 439.37 231.051 440.584 232.282C441.814 233.495 442.43 235.168 442.43 237.3V237.456H439.05V237.196C439.05 236.121 438.746 235.237 438.14 234.544C437.55 233.851 436.64 233.504 435.41 233.504C434.196 233.504 433.243 233.877 432.55 234.622C431.856 235.367 431.51 236.381 431.51 237.664V242.136C431.51 243.401 431.856 244.415 432.55 245.178C433.243 245.923 434.196 246.296 435.41 246.296C436.64 246.296 437.55 245.949 438.14 245.256C438.746 244.545 439.05 243.661 439.05 242.604V242.136H442.43V242.5C442.43 244.632 441.814 246.313 440.584 247.544C439.37 248.757 437.646 249.364 435.41 249.364ZM447.883 249V233.92H442.579V230.8H456.619V233.92H451.315V249H447.883ZM457.73 253.212V250.248H470.47V253.212H457.73ZM476.059 249L471.431 230.8H474.967L478.815 246.79H479.179L483.027 230.8H486.563L481.935 249H476.059ZM485.11 249L489.894 230.8H495.874L500.658 249H497.122L496.134 244.996H489.634L488.646 249H485.11ZM490.44 241.824H495.328L493.118 232.958H492.65L490.44 241.824ZM508.402 249.364C506.912 249.364 505.629 249.095 504.554 248.558C503.497 248.003 502.682 247.223 502.11 246.218C501.556 245.195 501.278 243.991 501.278 242.604V230.8H504.71V242.708C504.71 243.817 505.022 244.693 505.646 245.334C506.288 245.975 507.206 246.296 508.402 246.296C509.598 246.296 510.508 245.975 511.132 245.334C511.774 244.693 512.094 243.817 512.094 242.708V230.8H515.526V242.604C515.526 243.991 515.24 245.195 514.668 246.218C514.114 247.223 513.299 248.003 512.224 248.558C511.167 249.095 509.893 249.364 508.402 249.364ZM517.651 249V230.8H521.083V245.88H529.403V249H517.651ZM532.267 249V233.92H526.963V230.8H541.003V233.92H535.699V249H532.267ZM542.478 238.782V237.014H543.492C544.289 237.014 544.688 236.615 544.688 235.818V234.986H544.246C543.552 234.986 542.972 234.778 542.504 234.362C542.053 233.946 541.828 233.417 541.828 232.776C541.828 232.083 542.053 231.519 542.504 231.086C542.972 230.653 543.552 230.436 544.246 230.436C544.956 230.436 545.537 230.661 545.988 231.112C546.438 231.545 546.664 232.135 546.664 232.88V235.87C546.664 237.811 545.693 238.782 543.752 238.782H542.478ZM548.198 238.782V237.014H549.212C550.009 237.014 550.408 236.615 550.408 235.818V234.986H549.966C549.272 234.986 548.692 234.778 548.224 234.362C547.773 233.946 547.548 233.417 547.548 232.776C547.548 232.083 547.773 231.519 548.224 231.086C548.692 230.653 549.272 230.436 549.966 230.436C550.676 230.436 551.257 230.661 551.708 231.112C552.158 231.545 552.384 232.135 552.384 232.88V235.87C552.384 237.811 551.413 238.782 549.472 238.782H548.198ZM566.015 249.364C564.611 249.364 563.372 249.113 562.297 248.61C561.222 248.107 560.382 247.388 559.775 246.452C559.168 245.516 558.865 244.389 558.865 243.072V242.344H562.245V243.072C562.245 244.164 562.583 244.987 563.259 245.542C563.935 246.079 564.854 246.348 566.015 246.348C567.194 246.348 568.069 246.114 568.641 245.646C569.23 245.178 569.525 244.58 569.525 243.852C569.525 243.349 569.378 242.942 569.083 242.63C568.806 242.318 568.39 242.067 567.835 241.876C567.298 241.668 566.639 241.477 565.859 241.304L565.261 241.174C564.013 240.897 562.938 240.55 562.037 240.134C561.153 239.701 560.468 239.137 559.983 238.444C559.515 237.751 559.281 236.849 559.281 235.74C559.281 234.631 559.541 233.686 560.061 232.906C560.598 232.109 561.344 231.502 562.297 231.086C563.268 230.653 564.403 230.436 565.703 230.436C567.003 230.436 568.156 230.661 569.161 231.112C570.184 231.545 570.981 232.204 571.553 233.088C572.142 233.955 572.437 235.047 572.437 236.364V237.144H569.057V236.364C569.057 235.671 568.918 235.116 568.641 234.7C568.381 234.267 568 233.955 567.497 233.764C566.994 233.556 566.396 233.452 565.703 233.452C564.663 233.452 563.892 233.651 563.389 234.05C562.904 234.431 562.661 234.96 562.661 235.636C562.661 236.087 562.774 236.468 562.999 236.78C563.242 237.092 563.597 237.352 564.065 237.56C564.533 237.768 565.131 237.95 565.859 238.106L566.457 238.236C567.757 238.513 568.884 238.869 569.837 239.302C570.808 239.735 571.562 240.307 572.099 241.018C572.636 241.729 572.905 242.639 572.905 243.748C572.905 244.857 572.619 245.837 572.047 246.686C571.492 247.518 570.695 248.177 569.655 248.662C568.632 249.13 567.419 249.364 566.015 249.364ZM574.264 249V230.8H577.696V238.314H584.456V230.8H587.888V249H584.456V241.434H577.696V249H574.264ZM597.147 249.364C595.656 249.364 594.374 249.095 593.299 248.558C592.242 248.003 591.427 247.223 590.855 246.218C590.3 245.195 590.023 243.991 590.023 242.604V230.8H593.455V242.708C593.455 243.817 593.767 244.693 594.391 245.334C595.032 245.975 595.951 246.296 597.147 246.296C598.343 246.296 599.253 245.975 599.877 245.334C600.518 244.693 600.839 243.817 600.839 242.708V230.8H604.271V242.604C604.271 243.991 603.985 245.195 603.413 246.218C602.858 247.223 602.044 248.003 600.969 248.558C599.912 249.095 598.638 249.364 597.147 249.364ZM610.608 249V233.92H605.304V230.8H619.344V233.92H614.04V249H610.608ZM619.961 249V245.984H622.353V233.816H619.961V230.8H627.449C629.893 230.8 631.747 231.424 633.013 232.672C634.295 233.903 634.937 235.74 634.937 238.184V241.616C634.937 244.06 634.295 245.906 633.013 247.154C631.747 248.385 629.893 249 627.449 249H619.961ZM625.785 245.88H627.501C628.887 245.88 629.901 245.516 630.543 244.788C631.184 244.06 631.505 243.037 631.505 241.72V238.08C631.505 236.745 631.184 235.723 630.543 235.012C629.901 234.284 628.887 233.92 627.501 233.92H625.785V245.88ZM643.669 249.364C641.381 249.364 639.561 248.74 638.209 247.492C636.857 246.227 636.181 244.424 636.181 242.084V237.716C636.181 235.376 636.857 233.582 638.209 232.334C639.561 231.069 641.381 230.436 643.669 230.436C645.957 230.436 647.777 231.069 649.129 232.334C650.481 233.582 651.157 235.376 651.157 237.716V242.084C651.157 244.424 650.481 246.227 649.129 247.492C647.777 248.74 645.957 249.364 643.669 249.364ZM643.669 246.296C644.952 246.296 645.949 245.923 646.659 245.178C647.37 244.433 647.725 243.436 647.725 242.188V237.612C647.725 236.364 647.37 235.367 646.659 234.622C645.949 233.877 644.952 233.504 643.669 233.504C642.404 233.504 641.407 233.877 640.679 234.622C639.969 235.367 639.613 236.364 639.613 237.612V242.188C639.613 243.436 639.969 244.433 640.679 245.178C641.407 245.923 642.404 246.296 643.669 246.296ZM654.271 249L651.879 230.8H655.285L657.053 246.608H657.521L659.809 230.8H665.737L668.025 246.608H668.493L670.261 230.8H673.667L671.275 249H665.347L663.007 232.828H662.539L660.199 249H654.271ZM674.975 249V230.8H681.501L685.115 246.66H685.583V230.8H688.963V249H682.437L678.823 233.14H678.355V249H674.975ZM122.16 285V266.8H125.592V285H122.16ZM127.816 285V266.8H134.186L137.332 282.66H137.8L140.946 266.8H147.316V285H143.988V269.322H143.52L140.4 285H134.732L131.612 269.322H131.144V285H127.816ZM149.543 285V266.8H155.913L159.059 282.66H159.527L162.673 266.8H169.043V285H165.715V269.322H165.247L162.127 285H156.459L153.339 269.322H152.871V285H149.543ZM171.271 285V266.8H174.703V285H171.271ZM176.927 285V266.8H183.453L187.067 282.66H187.535V266.8H190.915V285H184.389L180.775 269.14H180.307V285H176.927ZM193.145 285V266.8H204.845V269.92H196.577V274.262H204.117V277.382H196.577V281.88H205.001V285H193.145ZM206.341 285V266.8H212.867L216.481 282.66H216.949V266.8H220.329V285H213.803L210.189 269.14H209.721V285H206.341ZM226.771 285V269.92H221.467V266.8H235.507V269.92H230.203V285H226.771ZM239.127 290.2L246.771 266.8H250.047L242.403 290.2H239.127ZM248.007 290.2L255.651 266.8H258.927L251.283 290.2H248.007ZM262.868 285L267.652 266.8H273.632L278.416 285H274.88L273.892 280.996H267.392L266.404 285H262.868ZM268.198 277.824H273.086L270.876 268.958H270.408L268.198 277.824ZM279.394 285V266.8H282.826V281.88H291.146V285H279.394ZM292.286 285V266.8H295.718V281.88H304.038V285H292.286ZM316.11 285.364C314.706 285.364 313.467 285.113 312.392 284.61C311.318 284.107 310.477 283.388 309.87 282.452C309.264 281.516 308.96 280.389 308.96 279.072V278.344H312.34V279.072C312.34 280.164 312.678 280.987 313.354 281.542C314.03 282.079 314.949 282.348 316.11 282.348C317.289 282.348 318.164 282.114 318.736 281.646C319.326 281.178 319.62 280.58 319.62 279.852C319.62 279.349 319.473 278.942 319.178 278.63C318.901 278.318 318.485 278.067 317.93 277.876C317.393 277.668 316.734 277.477 315.954 277.304L315.356 277.174C314.108 276.897 313.034 276.55 312.132 276.134C311.248 275.701 310.564 275.137 310.078 274.444C309.61 273.751 309.376 272.849 309.376 271.74C309.376 270.631 309.636 269.686 310.156 268.906C310.694 268.109 311.439 267.502 312.392 267.086C313.363 266.653 314.498 266.436 315.798 266.436C317.098 266.436 318.251 266.661 319.256 267.112C320.279 267.545 321.076 268.204 321.648 269.088C322.238 269.955 322.532 271.047 322.532 272.364V273.144H319.152V272.364C319.152 271.671 319.014 271.116 318.736 270.7C318.476 270.267 318.095 269.955 317.592 269.764C317.09 269.556 316.492 269.452 315.798 269.452C314.758 269.452 313.987 269.651 313.484 270.05C312.999 270.431 312.756 270.96 312.756 271.636C312.756 272.087 312.869 272.468 313.094 272.78C313.337 273.092 313.692 273.352 314.16 273.56C314.628 273.768 315.226 273.95 315.954 274.106L316.552 274.236C317.852 274.513 318.979 274.869 319.932 275.302C320.903 275.735 321.657 276.307 322.194 277.018C322.732 277.729 323 278.639 323 279.748C323 280.857 322.714 281.837 322.142 282.686C321.588 283.518 320.79 284.177 319.75 284.662C318.728 285.13 317.514 285.364 316.11 285.364ZM324.36 285V266.8H327.792V285H324.36ZM330.015 285V266.8H337.503C338.647 266.8 339.653 267.034 340.519 267.502C341.403 267.953 342.088 268.594 342.573 269.426C343.076 270.258 343.327 271.246 343.327 272.39V272.754C343.327 273.881 343.067 274.869 342.547 275.718C342.045 276.55 341.351 277.2 340.467 277.668C339.601 278.119 338.613 278.344 337.503 278.344H333.447V285H330.015ZM333.447 275.224H337.165C337.98 275.224 338.639 274.999 339.141 274.548C339.644 274.097 339.895 273.482 339.895 272.702V272.442C339.895 271.662 339.644 271.047 339.141 270.596C338.639 270.145 337.98 269.92 337.165 269.92H333.447V275.224ZM344.507 285V266.8H347.939V274.314H354.699V266.8H358.131V285H354.699V277.434H347.939V285H344.507ZM367.441 285.364C365.153 285.364 363.333 284.74 361.981 283.492C360.629 282.227 359.953 280.424 359.953 278.084V273.716C359.953 271.376 360.629 269.582 361.981 268.334C363.333 267.069 365.153 266.436 367.441 266.436C369.729 266.436 371.549 267.069 372.901 268.334C374.253 269.582 374.929 271.376 374.929 273.716V278.084C374.929 280.424 374.253 282.227 372.901 283.492C371.549 284.74 369.729 285.364 367.441 285.364ZM367.441 282.296C368.724 282.296 369.72 281.923 370.431 281.178C371.142 280.433 371.497 279.436 371.497 278.188V273.612C371.497 272.364 371.142 271.367 370.431 270.622C369.72 269.877 368.724 269.504 367.441 269.504C366.176 269.504 365.179 269.877 364.451 270.622C363.74 271.367 363.385 272.364 363.385 273.612V278.188C363.385 279.436 363.74 280.433 364.451 281.178C365.179 281.923 366.176 282.296 367.441 282.296ZM376.739 285V266.8H383.265L386.879 282.66H387.347V266.8H390.727V285H384.201L380.587 269.14H380.119V285H376.739ZM398.359 285V266.8H405.847C406.991 266.8 407.996 267.034 408.863 267.502C409.747 267.953 410.432 268.594 410.917 269.426C411.42 270.258 411.671 271.246 411.671 272.39V272.754C411.671 273.881 411.411 274.869 410.891 275.718C410.388 276.55 409.695 277.2 408.811 277.668C407.944 278.119 406.956 278.344 405.847 278.344H401.791V285H398.359ZM401.791 275.224H405.509C406.324 275.224 406.982 274.999 407.485 274.548C407.988 274.097 408.239 273.482 408.239 272.702V272.442C408.239 271.662 407.988 271.047 407.485 270.596C406.982 270.145 406.324 269.92 405.509 269.92H401.791V275.224ZM419.922 285.364C417.634 285.364 415.814 284.74 414.462 283.492C413.11 282.227 412.434 280.424 412.434 278.084V273.716C412.434 271.376 413.11 269.582 414.462 268.334C415.814 267.069 417.634 266.436 419.922 266.436C422.21 266.436 424.03 267.069 425.382 268.334C426.734 269.582 427.41 271.376 427.41 273.716V278.084C427.41 280.424 426.734 282.227 425.382 283.492C424.03 284.74 422.21 285.364 419.922 285.364ZM419.922 282.296C421.205 282.296 422.202 281.923 422.912 281.178C423.623 280.433 423.978 279.436 423.978 278.188V273.612C423.978 272.364 423.623 271.367 422.912 270.622C422.202 269.877 421.205 269.504 419.922 269.504C418.657 269.504 417.66 269.877 416.932 270.622C416.222 271.367 415.866 272.364 415.866 273.612V278.188C415.866 279.436 416.222 280.433 416.932 281.178C417.66 281.923 418.657 282.296 419.922 282.296ZM429.221 285V266.8H437.125C438.269 266.8 439.265 266.999 440.115 267.398C440.964 267.797 441.623 268.36 442.091 269.088C442.559 269.816 442.793 270.674 442.793 271.662V271.974C442.793 273.066 442.533 273.95 442.013 274.626C441.493 275.302 440.851 275.796 440.089 276.108V276.576C440.782 276.611 441.319 276.853 441.701 277.304C442.082 277.737 442.273 278.318 442.273 279.046V285H438.841V279.54C438.841 279.124 438.728 278.786 438.503 278.526C438.295 278.266 437.939 278.136 437.437 278.136H432.653V285H429.221ZM432.653 275.016H436.761C437.575 275.016 438.208 274.799 438.659 274.366C439.127 273.915 439.361 273.326 439.361 272.598V272.338C439.361 271.61 439.135 271.029 438.685 270.596C438.234 270.145 437.593 269.92 436.761 269.92H432.653V275.016ZM448.356 285V269.92H443.052V266.8H457.092V269.92H451.788V285H448.356ZM464.217 285.364C462.813 285.364 461.573 285.113 460.499 284.61C459.424 284.107 458.583 283.388 457.977 282.452C457.37 281.516 457.067 280.389 457.067 279.072V278.344H460.447V279.072C460.447 280.164 460.785 280.987 461.461 281.542C462.137 282.079 463.055 282.348 464.217 282.348C465.395 282.348 466.271 282.114 466.843 281.646C467.432 281.178 467.727 280.58 467.727 279.852C467.727 279.349 467.579 278.942 467.285 278.63C467.007 278.318 466.591 278.067 466.037 277.876C465.499 277.668 464.841 277.477 464.061 277.304L463.463 277.174C462.215 276.897 461.14 276.55 460.239 276.134C459.355 275.701 458.67 275.137 458.185 274.444C457.717 273.751 457.483 272.849 457.483 271.74C457.483 270.631 457.743 269.686 458.263 268.906C458.8 268.109 459.545 267.502 460.499 267.086C461.469 266.653 462.605 266.436 463.905 266.436C465.205 266.436 466.357 266.661 467.363 267.112C468.385 267.545 469.183 268.204 469.755 269.088C470.344 269.955 470.639 271.047 470.639 272.364V273.144H467.259V272.364C467.259 271.671 467.12 271.116 466.843 270.7C466.583 270.267 466.201 269.955 465.699 269.764C465.196 269.556 464.598 269.452 463.905 269.452C462.865 269.452 462.093 269.651 461.591 270.05C461.105 270.431 460.863 270.96 460.863 271.636C460.863 272.087 460.975 272.468 461.201 272.78C461.443 273.092 461.799 273.352 462.267 273.56C462.735 273.768 463.333 273.95 464.061 274.106L464.659 274.236C465.959 274.513 467.085 274.869 468.039 275.302C469.009 275.735 469.763 276.307 470.301 277.018C470.838 277.729 471.107 278.639 471.107 279.748C471.107 280.857 470.821 281.837 470.249 282.686C469.694 283.518 468.897 284.177 467.857 284.662C466.834 285.13 465.621 285.364 464.217 285.364ZM483.27 285V266.8H494.97V269.92H486.702V274.262H494.242V277.382H486.702V281.88H495.126V285H483.27ZM495.322 285L500.652 275.822L495.374 266.8H499.274L502.888 273.378H503.356L506.97 266.8H510.87L505.592 275.822L510.922 285H507.022L503.356 278.266H502.888L499.222 285H495.322ZM511.998 285V266.8H519.486C520.63 266.8 521.636 267.034 522.502 267.502C523.386 267.953 524.071 268.594 524.556 269.426C525.059 270.258 525.31 271.246 525.31 272.39V272.754C525.31 273.881 525.05 274.869 524.53 275.718C524.028 276.55 523.334 277.2 522.45 277.668C521.584 278.119 520.596 278.344 519.486 278.344H515.43V285H511.998ZM515.43 275.224H519.148C519.963 275.224 520.622 274.999 521.124 274.548C521.627 274.097 521.878 273.482 521.878 272.702V272.442C521.878 271.662 521.627 271.047 521.124 270.596C520.622 270.145 519.963 269.92 519.148 269.92H515.43V275.224ZM526.49 285V266.8H538.19V269.92H529.922V274.262H537.462V277.382H529.922V281.88H538.346V285H526.49ZM546.602 285.364C544.349 285.364 542.564 284.74 541.246 283.492C539.929 282.227 539.27 280.424 539.27 278.084V273.716C539.27 271.376 539.929 269.582 541.246 268.334C542.564 267.069 544.349 266.436 546.602 266.436C548.838 266.436 550.563 267.051 551.776 268.282C553.007 269.495 553.622 271.168 553.622 273.3V273.456H550.242V273.196C550.242 272.121 549.939 271.237 549.332 270.544C548.743 269.851 547.833 269.504 546.602 269.504C545.389 269.504 544.436 269.877 543.742 270.622C543.049 271.367 542.702 272.381 542.702 273.664V278.136C542.702 279.401 543.049 280.415 543.742 281.178C544.436 281.923 545.389 282.296 546.602 282.296C547.833 282.296 548.743 281.949 549.332 281.256C549.939 280.545 550.242 279.661 550.242 278.604V278.136H553.622V278.5C553.622 280.632 553.007 282.313 551.776 283.544C550.563 284.757 548.838 285.364 546.602 285.364ZM559.075 285V269.92H553.771V266.8H567.811V269.92H562.507V285H559.075ZM568.948 285V266.8H580.648V269.92H572.38V274.262H579.92V277.382H572.38V281.88H580.804V285H568.948ZM581.625 285V281.984H584.017V269.816H581.625V266.8H589.113C591.557 266.8 593.412 267.424 594.677 268.672C595.96 269.903 596.601 271.74 596.601 274.184V277.616C596.601 280.06 595.96 281.906 594.677 283.154C593.412 284.385 591.557 285 589.113 285H581.625ZM587.449 281.88H589.165C590.552 281.88 591.566 281.516 592.207 280.788C592.848 280.06 593.169 279.037 593.169 277.72V274.08C593.169 272.745 592.848 271.723 592.207 271.012C591.566 270.284 590.552 269.92 589.165 269.92H587.449V281.88ZM607.088 285V269.92H601.784V266.8H615.824V269.92H610.52V285H607.088ZM623.297 285.364C621.009 285.364 619.189 284.74 617.837 283.492C616.485 282.227 615.809 280.424 615.809 278.084V273.716C615.809 271.376 616.485 269.582 617.837 268.334C619.189 267.069 621.009 266.436 623.297 266.436C625.585 266.436 627.405 267.069 628.757 268.334C630.109 269.582 630.785 271.376 630.785 273.716V278.084C630.785 280.424 630.109 282.227 628.757 283.492C627.405 284.74 625.585 285.364 623.297 285.364ZM623.297 282.296C624.579 282.296 625.576 281.923 626.287 281.178C626.997 280.433 627.353 279.436 627.353 278.188V273.612C627.353 272.364 626.997 271.367 626.287 270.622C625.576 269.877 624.579 269.504 623.297 269.504C622.031 269.504 621.035 269.877 620.307 270.622C619.596 271.367 619.241 272.364 619.241 273.612V278.188C619.241 279.436 619.596 280.433 620.307 281.178C621.035 281.923 622.031 282.296 623.297 282.296ZM644.314 285.364C642.91 285.364 641.671 285.113 640.596 284.61C639.522 284.107 638.681 283.388 638.074 282.452C637.468 281.516 637.164 280.389 637.164 279.072V278.344H640.544V279.072C640.544 280.164 640.882 280.987 641.558 281.542C642.234 282.079 643.153 282.348 644.314 282.348C645.493 282.348 646.368 282.114 646.94 281.646C647.53 281.178 647.824 280.58 647.824 279.852C647.824 279.349 647.677 278.942 647.382 278.63C647.105 278.318 646.689 278.067 646.134 277.876C645.597 277.668 644.938 277.477 644.158 277.304L643.56 277.174C642.312 276.897 641.238 276.55 640.336 276.134C639.452 275.701 638.768 275.137 638.282 274.444C637.814 273.751 637.58 272.849 637.58 271.74C637.58 270.631 637.84 269.686 638.36 268.906C638.898 268.109 639.643 267.502 640.596 267.086C641.567 266.653 642.702 266.436 644.002 266.436C645.302 266.436 646.455 266.661 647.46 267.112C648.483 267.545 649.28 268.204 649.852 269.088C650.442 269.955 650.736 271.047 650.736 272.364V273.144H647.356V272.364C647.356 271.671 647.218 271.116 646.94 270.7C646.68 270.267 646.299 269.955 645.796 269.764C645.294 269.556 644.696 269.452 644.002 269.452C642.962 269.452 642.191 269.651 641.688 270.05C641.203 270.431 640.96 270.96 640.96 271.636C640.96 272.087 641.073 272.468 641.298 272.78C641.541 273.092 641.896 273.352 642.364 273.56C642.832 273.768 643.43 273.95 644.158 274.106L644.756 274.236C646.056 274.513 647.183 274.869 648.136 275.302C649.107 275.735 649.861 276.307 650.398 277.018C650.936 277.729 651.204 278.639 651.204 279.748C651.204 280.857 650.918 281.837 650.346 282.686C649.792 283.518 648.994 284.177 647.954 284.662C646.932 285.13 645.718 285.364 644.314 285.364ZM659.584 285.364C658.093 285.364 656.811 285.095 655.736 284.558C654.679 284.003 653.864 283.223 653.292 282.218C652.737 281.195 652.46 279.991 652.46 278.604V266.8H655.892V278.708C655.892 279.817 656.204 280.693 656.828 281.334C657.469 281.975 658.388 282.296 659.584 282.296C660.78 282.296 661.69 281.975 662.314 281.334C662.955 280.693 663.276 279.817 663.276 278.708V266.8H666.708V278.604C666.708 279.991 666.422 281.195 665.85 282.218C665.295 283.223 664.481 284.003 663.406 284.558C662.349 285.095 661.075 285.364 659.584 285.364ZM668.833 285V266.8H676.737C677.881 266.8 678.877 266.999 679.727 267.398C680.576 267.797 681.235 268.36 681.703 269.088C682.171 269.816 682.405 270.674 682.405 271.662V271.974C682.405 273.066 682.145 273.95 681.625 274.626C681.105 275.302 680.463 275.796 679.701 276.108V276.576C680.394 276.611 680.931 276.853 681.313 277.304C681.694 277.737 681.885 278.318 681.885 279.046V285H678.453V279.54C678.453 279.124 678.34 278.786 678.115 278.526C677.907 278.266 677.551 278.136 677.049 278.136H672.265V285H668.833ZM672.265 275.016H676.373C677.187 275.016 677.82 274.799 678.271 274.366C678.739 273.915 678.973 273.326 678.973 272.598V272.338C678.973 271.61 678.747 271.029 678.297 270.596C677.846 270.145 677.205 269.92 676.373 269.92H672.265V275.016ZM690.353 285.364C689.105 285.364 687.969 285.087 686.947 284.532C685.941 283.96 685.135 283.137 684.529 282.062C683.939 280.97 683.645 279.644 683.645 278.084V273.716C683.645 271.376 684.303 269.582 685.621 268.334C686.938 267.069 688.723 266.436 690.977 266.436C693.213 266.436 694.937 267.034 696.151 268.23C697.381 269.409 697.997 271.012 697.997 273.04V273.144H694.617V272.936C694.617 272.295 694.478 271.714 694.201 271.194C693.941 270.674 693.542 270.267 693.005 269.972C692.467 269.66 691.791 269.504 690.977 269.504C689.763 269.504 688.81 269.877 688.117 270.622C687.423 271.367 687.077 272.381 687.077 273.664V278.136C687.077 279.401 687.423 280.424 688.117 281.204C688.81 281.967 689.781 282.348 691.029 282.348C692.277 282.348 693.187 282.019 693.759 281.36C694.331 280.701 694.617 279.869 694.617 278.864V278.604H690.301V275.692H697.997V285H694.825V283.258H694.357C694.235 283.553 694.036 283.865 693.759 284.194C693.499 284.523 693.1 284.801 692.563 285.026C692.025 285.251 691.289 285.364 690.353 285.364ZM700.075 285V266.8H711.775V269.92H703.507V274.262H711.047V277.382H703.507V281.88H711.931V285H700.075ZM250.409 321V317.308H241.465V313.46L247.757 302.8H253.737V314.344H256.753V317.308H253.737V321H250.409ZM244.637 314.344H250.409V304.932H249.941L244.637 313.928V314.344ZM259.993 321.364C259.299 321.364 258.71 321.139 258.225 320.688C257.757 320.22 257.523 319.622 257.523 318.894C257.523 318.166 257.757 317.577 258.225 317.126C258.71 316.658 259.299 316.424 259.993 316.424C260.703 316.424 261.293 316.658 261.761 317.126C262.229 317.577 262.463 318.166 262.463 318.894C262.463 319.622 262.229 320.22 261.761 320.688C261.293 321.139 260.703 321.364 259.993 321.364ZM270.541 321.364C269.12 321.364 267.889 321.113 266.849 320.61C265.826 320.107 265.038 319.397 264.483 318.478C263.928 317.559 263.651 316.493 263.651 315.28V315.02H267.031V315.254C267.031 316.121 267.317 316.866 267.889 317.49C268.478 318.097 269.345 318.4 270.489 318.4C271.633 318.4 272.508 318.097 273.115 317.49C273.739 316.866 274.051 316.06 274.051 315.072V314.812C274.051 313.841 273.739 313.07 273.115 312.498C272.508 311.926 271.746 311.64 270.827 311.64C270.324 311.64 269.908 311.709 269.579 311.848C269.25 311.987 268.981 312.16 268.773 312.368C268.565 312.576 268.392 312.784 268.253 312.992H264.223V302.8H276.651V305.816H267.551V310.262H268.019C268.192 310.037 268.426 309.82 268.721 309.612C269.016 309.404 269.397 309.231 269.865 309.092C270.333 308.953 270.888 308.884 271.529 308.884C272.604 308.884 273.583 309.109 274.467 309.56C275.351 310.011 276.053 310.678 276.573 311.562C277.11 312.429 277.379 313.503 277.379 314.786V315.098C277.379 316.381 277.102 317.49 276.547 318.426C276.01 319.362 275.23 320.09 274.207 320.61C273.184 321.113 271.962 321.364 270.541 321.364ZM277.625 321L282.955 311.822L277.677 302.8H281.577L285.191 309.378H285.659L289.273 302.8H293.173L287.895 311.822L293.225 321H289.325L285.659 314.266H285.191L281.525 321H277.625ZM299.183 321V317.984H301.575V305.816H299.183V302.8H308.543C309.652 302.8 310.614 302.991 311.429 303.372C312.261 303.736 312.902 304.265 313.353 304.958C313.821 305.634 314.055 306.449 314.055 307.402V307.662C314.055 308.494 313.899 309.179 313.587 309.716C313.275 310.236 312.902 310.643 312.469 310.938C312.053 311.215 311.654 311.415 311.273 311.536V312.004C311.654 312.108 312.07 312.307 312.521 312.602C312.971 312.879 313.353 313.287 313.665 313.824C313.994 314.361 314.159 315.063 314.159 315.93V316.19C314.159 317.195 313.925 318.062 313.457 318.79C312.989 319.501 312.339 320.047 311.507 320.428C310.692 320.809 309.739 321 308.647 321H299.183ZM305.007 317.88H308.231C308.976 317.88 309.574 317.698 310.025 317.334C310.493 316.97 310.727 316.45 310.727 315.774V315.514C310.727 314.838 310.501 314.318 310.051 313.954C309.6 313.59 308.993 313.408 308.231 313.408H305.007V317.88ZM305.007 310.288H308.179C308.889 310.288 309.47 310.106 309.921 309.742C310.389 309.378 310.623 308.875 310.623 308.234V307.974C310.623 307.315 310.397 306.813 309.947 306.466C309.496 306.102 308.907 305.92 308.179 305.92H305.007V310.288ZM315.768 321V302.8H327.468V305.92H319.2V310.262H326.74V313.382H319.2V317.88H327.624V321H315.768ZM328.965 321V302.8H340.405V305.92H332.397V310.314H339.781V313.434H332.397V321H328.965ZM348.573 321.364C346.285 321.364 344.465 320.74 343.113 319.492C341.761 318.227 341.085 316.424 341.085 314.084V309.716C341.085 307.376 341.761 305.582 343.113 304.334C344.465 303.069 346.285 302.436 348.573 302.436C350.861 302.436 352.681 303.069 354.033 304.334C355.385 305.582 356.061 307.376 356.061 309.716V314.084C356.061 316.424 355.385 318.227 354.033 319.492C352.681 320.74 350.861 321.364 348.573 321.364ZM348.573 318.296C349.856 318.296 350.852 317.923 351.563 317.178C352.274 316.433 352.629 315.436 352.629 314.188V309.612C352.629 308.364 352.274 307.367 351.563 306.622C350.852 305.877 349.856 305.504 348.573 305.504C347.308 305.504 346.311 305.877 345.583 306.622C344.872 307.367 344.517 308.364 344.517 309.612V314.188C344.517 315.436 344.872 316.433 345.583 317.178C346.311 317.923 347.308 318.296 348.573 318.296ZM357.871 321V302.8H365.775C366.919 302.8 367.916 302.999 368.765 303.398C369.615 303.797 370.273 304.36 370.741 305.088C371.209 305.816 371.443 306.674 371.443 307.662V307.974C371.443 309.066 371.183 309.95 370.663 310.626C370.143 311.302 369.502 311.796 368.739 312.108V312.576C369.433 312.611 369.97 312.853 370.351 313.304C370.733 313.737 370.923 314.318 370.923 315.046V321H367.491V315.54C367.491 315.124 367.379 314.786 367.153 314.526C366.945 314.266 366.59 314.136 366.087 314.136H361.303V321H357.871ZM361.303 311.016H365.411C366.226 311.016 366.859 310.799 367.309 310.366C367.777 309.915 368.011 309.326 368.011 308.598V308.338C368.011 307.61 367.786 307.029 367.335 306.596C366.885 306.145 366.243 305.92 365.411 305.92H361.303V311.016ZM373.099 321V302.8H384.799V305.92H376.531V310.262H384.071V313.382H376.531V317.88H384.955V321H373.099ZM395.122 321V305.92H389.818V302.8H403.858V305.92H398.554V321H395.122ZM411.331 321.364C409.043 321.364 407.223 320.74 405.871 319.492C404.519 318.227 403.843 316.424 403.843 314.084V309.716C403.843 307.376 404.519 305.582 405.871 304.334C407.223 303.069 409.043 302.436 411.331 302.436C413.619 302.436 415.439 303.069 416.791 304.334C418.143 305.582 418.819 307.376 418.819 309.716V314.084C418.819 316.424 418.143 318.227 416.791 319.492C415.439 320.74 413.619 321.364 411.331 321.364ZM411.331 318.296C412.614 318.296 413.61 317.923 414.321 317.178C415.032 316.433 415.387 315.436 415.387 314.188V309.612C415.387 308.364 415.032 307.367 414.321 306.622C413.61 305.877 412.614 305.504 411.331 305.504C410.066 305.504 409.069 305.877 408.341 306.622C407.63 307.367 407.275 308.364 407.275 309.612V314.188C407.275 315.436 407.63 316.433 408.341 317.178C409.069 317.923 410.066 318.296 411.331 318.296ZM424.105 321V305.92H418.801V302.8H432.841V305.92H427.537V321H424.105ZM431.054 321L435.838 302.8H441.818L446.602 321H443.066L442.078 316.996H435.578L434.59 321H431.054ZM436.384 313.824H441.272L439.062 304.958H438.594L436.384 313.824ZM447.581 321V302.8H451.013V317.88H459.333V321H447.581ZM464.567 321V317.984H466.959V305.816H464.567V302.8H472.055C474.499 302.8 476.354 303.424 477.619 304.672C478.902 305.903 479.543 307.74 479.543 310.184V313.616C479.543 316.06 478.902 317.906 477.619 319.154C476.354 320.385 474.499 321 472.055 321H464.567ZM470.391 317.88H472.107C473.494 317.88 474.508 317.516 475.149 316.788C475.79 316.06 476.111 315.037 476.111 313.72V310.08C476.111 308.745 475.79 307.723 475.149 307.012C474.508 306.284 473.494 305.92 472.107 305.92H470.391V317.88ZM479.803 321L484.587 302.8H490.567L495.351 321H491.815L490.827 316.996H484.327L483.339 321H479.803ZM485.133 313.824H490.021L487.811 304.958H487.343L485.133 313.824ZM496.33 321V302.8H504.234C505.378 302.8 506.374 302.999 507.224 303.398C508.073 303.797 508.732 304.36 509.2 305.088C509.668 305.816 509.902 306.674 509.902 307.662V307.974C509.902 309.066 509.642 309.95 509.122 310.626C508.602 311.302 507.96 311.796 507.198 312.108V312.576C507.891 312.611 508.428 312.853 508.81 313.304C509.191 313.737 509.382 314.318 509.382 315.046V321H505.95V315.54C505.95 315.124 505.837 314.786 505.612 314.526C505.404 314.266 505.048 314.136 504.546 314.136H499.762V321H496.33ZM499.762 311.016H503.87C504.684 311.016 505.317 310.799 505.768 310.366C506.236 309.915 506.47 309.326 506.47 308.598V308.338C506.47 307.61 506.244 307.029 505.794 306.596C505.343 306.145 504.702 305.92 503.87 305.92H499.762V311.016ZM511.557 321V302.8H514.989V310.028H515.457L521.359 302.8H525.753L518.161 311.77L526.013 321H521.489L515.457 313.616H514.989V321H511.557ZM526.633 321V302.8H533.159L536.773 318.66H537.241V302.8H540.621V321H534.095L530.481 305.14H530.013V321H526.633ZM542.851 321V302.8H554.551V305.92H546.283V310.262H553.823V313.382H546.283V317.88H554.707V321H542.851ZM562.365 321.364C560.961 321.364 559.722 321.113 558.647 320.61C557.573 320.107 556.732 319.388 556.125 318.452C555.519 317.516 555.215 316.389 555.215 315.072V314.344H558.595V315.072C558.595 316.164 558.933 316.987 559.609 317.542C560.285 318.079 561.204 318.348 562.365 318.348C563.544 318.348 564.419 318.114 564.991 317.646C565.581 317.178 565.875 316.58 565.875 315.852C565.875 315.349 565.728 314.942 565.433 314.63C565.156 314.318 564.74 314.067 564.185 313.876C563.648 313.668 562.989 313.477 562.209 313.304L561.611 313.174C560.363 312.897 559.289 312.55 558.387 312.134C557.503 311.701 556.819 311.137 556.333 310.444C555.865 309.751 555.631 308.849 555.631 307.74C555.631 306.631 555.891 305.686 556.411 304.906C556.949 304.109 557.694 303.502 558.647 303.086C559.618 302.653 560.753 302.436 562.053 302.436C563.353 302.436 564.506 302.661 565.511 303.112C566.534 303.545 567.331 304.204 567.903 305.088C568.493 305.955 568.787 307.047 568.787 308.364V309.144H565.407V308.364C565.407 307.671 565.269 307.116 564.991 306.7C564.731 306.267 564.35 305.955 563.847 305.764C563.345 305.556 562.747 305.452 562.053 305.452C561.013 305.452 560.242 305.651 559.739 306.05C559.254 306.431 559.011 306.96 559.011 307.636C559.011 308.087 559.124 308.468 559.349 308.78C559.592 309.092 559.947 309.352 560.415 309.56C560.883 309.768 561.481 309.95 562.209 310.106L562.807 310.236C564.107 310.513 565.234 310.869 566.187 311.302C567.158 311.735 567.912 312.307 568.449 313.018C568.987 313.729 569.255 314.639 569.255 315.748C569.255 316.857 568.969 317.837 568.397 318.686C567.843 319.518 567.045 320.177 566.005 320.662C564.983 321.13 563.769 321.364 562.365 321.364ZM576.933 321.364C575.529 321.364 574.29 321.113 573.215 320.61C572.14 320.107 571.3 319.388 570.693 318.452C570.086 317.516 569.783 316.389 569.783 315.072V314.344H573.163V315.072C573.163 316.164 573.501 316.987 574.177 317.542C574.853 318.079 575.772 318.348 576.933 318.348C578.112 318.348 578.987 318.114 579.559 317.646C580.148 317.178 580.443 316.58 580.443 315.852C580.443 315.349 580.296 314.942 580.001 314.63C579.724 314.318 579.308 314.067 578.753 313.876C578.216 313.668 577.557 313.477 576.777 313.304L576.179 313.174C574.931 312.897 573.856 312.55 572.955 312.134C572.071 311.701 571.386 311.137 570.901 310.444C570.433 309.751 570.199 308.849 570.199 307.74C570.199 306.631 570.459 305.686 570.979 304.906C571.516 304.109 572.262 303.502 573.215 303.086C574.186 302.653 575.321 302.436 576.621 302.436C577.921 302.436 579.074 302.661 580.079 303.112C581.102 303.545 581.899 304.204 582.471 305.088C583.06 305.955 583.355 307.047 583.355 308.364V309.144H579.975V308.364C579.975 307.671 579.836 307.116 579.559 306.7C579.299 306.267 578.918 305.955 578.415 305.764C577.912 305.556 577.314 305.452 576.621 305.452C575.581 305.452 574.81 305.651 574.307 306.05C573.822 306.431 573.579 306.96 573.579 307.636C573.579 308.087 573.692 308.468 573.917 308.78C574.16 309.092 574.515 309.352 574.983 309.56C575.451 309.768 576.049 309.95 576.777 310.106L577.375 310.236C578.675 310.513 579.802 310.869 580.755 311.302C581.726 311.735 582.48 312.307 583.017 313.018C583.554 313.729 583.823 314.639 583.823 315.748C583.823 316.857 583.537 317.837 582.965 318.686C582.41 319.518 581.613 320.177 580.573 320.662C579.55 321.13 578.337 321.364 576.933 321.364ZM587.34 321.364C586.647 321.364 586.058 321.139 585.572 320.688C585.104 320.22 584.87 319.622 584.87 318.894C584.87 318.166 585.104 317.577 585.572 317.126C586.058 316.658 586.647 316.424 587.34 316.424C588.051 316.424 588.64 316.658 589.108 317.126C589.576 317.577 589.81 318.166 589.81 318.894C589.81 319.622 589.576 320.22 589.108 320.688C588.64 321.139 588.051 321.364 587.34 321.364Z" fill="white"/>
</g>
<mask id="path-8-inside-1_1_943" fill="white">
<path d="M189 351H637V403H189V351Z"/>
</mask>
<path d="M189 351H637V403H189V351Z" fill="#A020F0" fill-opacity="0.05"/>
<path d="M189 351V352H637V351V350H189V351ZM637 403V402H189V403V404H637V403Z" fill="#A020F0" fill-opacity="0.3" mask="url(#path-8-inside-1_1_943)"/>
<path d="M294.364 372V364.3H296.597L298.28 371.208H298.456L300.139 364.3H302.372V372H301.217V365.136H301.041L299.369 372H297.367L295.695 365.136H295.519V372H294.364ZM305.406 372L307.606 364.3H309.696L311.885 372H310.664L310.158 370.185H307.144L306.638 372H305.406ZM307.441 369.085H309.861L308.739 365.037H308.563L307.441 369.085ZM314.928 372V364.3H318.162C318.639 364.3 319.057 364.384 319.416 364.553C319.783 364.714 320.065 364.949 320.263 365.257C320.468 365.565 320.571 365.932 320.571 366.357V366.478C320.571 366.962 320.454 367.351 320.219 367.644C319.992 367.93 319.713 368.132 319.383 368.249V368.425C319.662 368.44 319.885 368.535 320.054 368.711C320.223 368.88 320.307 369.125 320.307 369.448V372H319.108V369.613C319.108 369.415 319.057 369.257 318.954 369.14C318.851 369.023 318.686 368.964 318.459 368.964H316.116V372H314.928ZM316.116 367.886H318.03C318.455 367.886 318.785 367.78 319.02 367.567C319.255 367.347 319.372 367.05 319.372 366.676V366.588C319.372 366.214 319.255 365.921 319.02 365.708C318.793 365.488 318.463 365.378 318.03 365.378H316.116V367.886ZM323.878 372V364.3H325.066V367.501H325.242L328.113 364.3H329.664L326.188 368.095L329.785 372H328.19L325.242 368.733H325.066V372H323.878ZM332.678 372V364.3H337.529V365.378H333.866V367.589H337.221V368.667H333.866V370.922H337.584V372H332.678ZM342.66 372V365.378H340.295V364.3H346.213V365.378H343.848V372H342.66ZM353.782 372V364.3H354.97V367.6H358.204V364.3H359.392V372H358.204V368.678H354.97V372H353.782ZM362.428 372L364.628 364.3H366.718L368.907 372H367.686L367.18 370.185H364.166L363.66 372H362.428ZM364.463 369.085H366.883L365.761 365.037H365.585L364.463 369.085ZM371.95 372V364.3H373.138V370.922H376.845V372H371.95ZM380.75 372V365.378H378.385V364.3H384.303V365.378H381.938V372H380.75ZM387.38 372V364.3H392.231V365.378H388.568V367.589H391.923V368.667H388.568V370.922H392.286V372H387.38ZM395.239 372V370.944H396.273V365.356H395.239V364.3H398.319C399.345 364.3 400.13 364.56 400.673 365.081C401.223 365.602 401.498 366.386 401.498 367.435V368.876C401.498 369.925 401.223 370.709 400.673 371.23C400.13 371.743 399.345 372 398.319 372H395.239ZM397.472 370.922H398.33C398.997 370.922 399.492 370.753 399.815 370.416C400.137 370.079 400.299 369.576 400.299 368.909V367.391C400.299 366.716 400.137 366.214 399.815 365.884C399.492 365.554 398.997 365.389 398.33 365.389H397.472V370.922ZM405.33 372.154C405.073 372.154 404.857 372.07 404.681 371.901C404.512 371.732 404.428 371.516 404.428 371.252C404.428 370.988 404.512 370.775 404.681 370.614C404.857 370.445 405.073 370.361 405.33 370.361C405.586 370.361 405.799 370.445 405.968 370.614C406.144 370.783 406.232 370.995 406.232 371.252C406.232 371.516 406.144 371.732 405.968 371.901C405.799 372.07 405.586 372.154 405.33 372.154ZM415.548 372L413.403 364.3H414.635L416.505 371.252H416.648L418.507 364.3H419.739L417.605 372H415.548ZM425.517 372.154C424.571 372.154 423.82 371.89 423.262 371.362C422.705 370.827 422.426 370.057 422.426 369.052V367.248C422.426 366.243 422.705 365.477 423.262 364.949C423.82 364.414 424.571 364.146 425.517 364.146C426.463 364.146 427.215 364.414 427.772 364.949C428.337 365.477 428.619 366.243 428.619 367.248V369.052C428.619 370.057 428.337 370.827 427.772 371.362C427.215 371.89 426.463 372.154 425.517 372.154ZM425.517 371.087C426.126 371.087 426.595 370.911 426.925 370.559C427.255 370.2 427.42 369.712 427.42 369.096V367.204C427.42 366.588 427.255 366.104 426.925 365.752C426.595 365.393 426.126 365.213 425.517 365.213C424.923 365.213 424.458 365.393 424.12 365.752C423.783 366.104 423.614 366.588 423.614 367.204V369.096C423.614 369.712 423.783 370.2 424.12 370.559C424.458 370.911 424.923 371.087 425.517 371.087ZM432.026 372V364.3H433.214V370.922H436.921V372H432.026ZM439.437 372L441.637 364.3H443.727L445.916 372H444.695L444.189 370.185H441.175L440.669 372H439.437ZM441.472 369.085H443.892L442.77 365.037H442.594L441.472 369.085ZM450.034 372V365.378H447.669V364.3H453.587V365.378H451.222V372H450.034ZM456.663 372V364.3H457.851V372H456.663ZM461.456 372V364.3H462.644V370.922H466.351V372H461.456ZM469.44 372V364.3H470.628V372H469.44ZM476.07 372V365.378H473.705V364.3H479.623V365.378H477.258V372H476.07ZM484.69 372V369.206L482.017 364.3H483.359L485.207 367.787H485.372L487.22 364.3H488.562L485.889 369.206V372H484.69ZM498.792 372.154C498.213 372.154 497.699 372.051 497.252 371.846C496.805 371.641 496.453 371.34 496.196 370.944C495.947 370.541 495.822 370.053 495.822 369.481V369.206H496.999V369.481C496.999 370.024 497.16 370.431 497.483 370.702C497.813 370.973 498.249 371.109 498.792 371.109C499.342 371.109 499.756 370.995 500.035 370.768C500.314 370.533 500.453 370.233 500.453 369.866C500.453 369.624 500.387 369.426 500.255 369.272C500.123 369.118 499.936 368.997 499.694 368.909C499.452 368.814 499.162 368.726 498.825 368.645L498.418 368.546C497.927 368.429 497.498 368.286 497.131 368.117C496.772 367.941 496.493 367.71 496.295 367.424C496.097 367.138 495.998 366.771 495.998 366.324C495.998 365.869 496.108 365.481 496.328 365.158C496.555 364.835 496.867 364.586 497.263 364.41C497.659 364.234 498.125 364.146 498.66 364.146C499.195 364.146 499.672 364.238 500.09 364.421C500.515 364.604 500.849 364.876 501.091 365.235C501.333 365.594 501.454 366.045 501.454 366.588V366.984H500.277V366.588C500.277 366.258 500.207 365.99 500.068 365.785C499.936 365.58 499.749 365.429 499.507 365.334C499.265 365.239 498.983 365.191 498.66 365.191C498.191 365.191 497.824 365.29 497.56 365.488C497.303 365.679 497.175 365.946 497.175 366.291C497.175 366.526 497.23 366.72 497.34 366.874C497.457 367.021 497.626 367.142 497.846 367.237C498.066 367.332 498.341 367.417 498.671 367.49L499.078 367.589C499.577 367.699 500.017 367.842 500.398 368.018C500.779 368.187 501.08 368.418 501.3 368.711C501.52 369.004 501.63 369.382 501.63 369.844C501.63 370.306 501.513 370.709 501.278 371.054C501.051 371.399 500.724 371.67 500.299 371.868C499.874 372.059 499.371 372.154 498.792 372.154ZM504.877 372V364.3H507.935C508.405 364.3 508.823 364.395 509.189 364.586C509.563 364.769 509.853 365.033 510.058 365.378C510.271 365.715 510.377 366.122 510.377 366.599V366.742C510.377 367.219 510.267 367.629 510.047 367.974C509.835 368.319 509.545 368.583 509.178 368.766C508.812 368.949 508.397 369.041 507.935 369.041H506.065V372H504.877ZM506.065 367.963H507.814C508.232 367.963 508.566 367.853 508.815 367.633C509.065 367.413 509.189 367.112 509.189 366.731V366.621C509.189 366.232 509.065 365.928 508.815 365.708C508.566 365.488 508.232 365.378 507.814 365.378H506.065V367.963ZM513.505 372V364.3H514.693V372H513.505ZM518.298 372V364.3H519.486V367.501H519.662L522.533 364.3H524.084L520.608 368.095L524.205 372H522.61L519.662 368.733H519.486V372H518.298ZM527.098 372V364.3H531.949V365.378H528.286V367.589H531.641V368.667H528.286V370.922H532.004V372H527.098ZM378.76 389V381.3H379.948V389H378.76ZM383.553 389V381.3H385.786L387.469 388.208H387.645L389.328 381.3H391.561V389H390.406V382.136H390.23L388.558 389H386.556L384.884 382.136H384.708V389H383.553ZM395.167 389V381.3H397.4L399.083 388.208H399.259L400.942 381.3H403.175V389H402.02V382.136H401.844L400.172 389H398.17L396.498 382.136H396.322V389H395.167ZM406.781 389V381.3H407.969V389H406.781ZM411.574 389V381.3H413.862L415.952 388.208H416.128V381.3H417.305V389H415.017L412.927 382.081H412.751V389H411.574ZM420.911 389V381.3H425.762V382.378H422.099V384.589H425.454V385.667H422.099V387.922H425.817V389H420.911ZM429.055 389V381.3H431.343L433.433 388.208H433.609V381.3H434.786V389H432.498L430.408 382.081H430.232V389H429.055ZM440.229 389V382.378H437.864V381.3H443.782V382.378H441.417V389H440.229ZM446.521 389.154C446.265 389.154 446.048 389.07 445.872 388.901C445.704 388.732 445.619 388.516 445.619 388.252C445.619 387.988 445.704 387.775 445.872 387.614C446.048 387.445 446.265 387.361 446.521 387.361C446.778 387.361 446.991 387.445 447.159 387.614C447.335 387.783 447.423 387.995 447.423 388.252C447.423 388.516 447.335 388.732 447.159 388.901C446.991 389.07 446.778 389.154 446.521 389.154Z" fill="#A020F0" fill-opacity="0.8"/>
<path d="M385.5 180.5L413 133L440.5 180.5H385.5ZM394.125 175.5H431.875L413 143L394.125 175.5ZM413 173C413.708 173 414.302 172.76 414.781 172.281C415.26 171.802 415.5 171.208 415.5 170.5C415.5 169.792 415.26 169.198 414.781 168.719C414.302 168.24 413.708 168 413 168C412.292 168 411.698 168.24 411.219 168.719C410.74 169.198 410.5 169.792 410.5 170.5C410.5 171.208 410.74 171.802 411.219 172.281C411.698 172.76 412.292 173 413 173ZM410.5 165.5H415.5V153H410.5V165.5Z" fill="#A020F0"/>
<g filter="url(#filter4_d_1_943)">
<path d="M103 447.271C115.445 447.404 127.89 447.531 140.335 447.651C208.842 448.312 277.349 448.77 345.855 449.027C346.454 449.029 347.196 448.549 347.449 448.007C349.033 444.613 350.616 441.219 352.198 437.824L349.006 437.959C350.928 441.365 352.85 444.772 354.773 448.178C355.046 448.661 355.812 449.103 356.367 449.105C362.046 449.123 367.725 449.139 373.403 449.153C374.097 449.155 374.901 448.603 375.156 447.958C377.102 443.027 379.047 438.096 380.991 433.165L377.389 433.094C381.471 444.948 385.56 456.799 389.656 468.649C390.378 470.734 393.107 470.508 393.479 468.333C395.564 456.184 397.644 444.035 399.716 431.884C400.543 427.035 401.369 422.185 402.195 417.336L398.319 417.594C401.465 427.683 404.615 437.77 407.77 447.856C408.353 449.732 410.463 449.93 411.388 448.197C413.196 444.795 415.003 441.392 416.81 437.989L413.47 438.163C415.771 441.559 418.073 444.955 420.376 448.35C420.667 448.783 421.453 449.199 421.974 449.2C510.538 449.021 599.101 448.505 687.665 447.651C700.11 447.531 712.555 447.404 725 447.271C712.555 447.138 700.11 447.011 687.665 446.891C599.101 446.037 510.538 445.521 421.974 445.342L423.573 446.192C421.284 442.787 418.995 439.383 416.705 435.979C415.779 434.612 414.139 434.695 413.365 436.153C411.547 439.55 409.73 442.947 407.913 446.345L411.53 446.686C408.402 436.591 405.27 426.498 402.133 416.406C401.465 414.262 398.635 414.45 398.258 416.664C397.428 421.513 396.6 426.362 395.773 431.211C393.701 443.362 391.634 455.514 389.575 467.667L393.398 467.351C389.277 455.51 385.15 443.672 381.017 431.835C380.363 429.957 378.138 429.911 377.415 431.764C375.492 436.704 373.571 441.644 371.65 446.584L373.403 445.388C367.725 445.403 362.046 445.419 356.367 445.437L357.962 446.364C356.018 442.97 354.074 439.577 352.129 436.183C351.31 434.752 349.625 434.818 348.937 436.318C347.378 439.723 345.82 443.129 344.262 446.535L345.855 445.515C277.349 445.772 208.842 446.23 140.335 446.891C127.89 447.011 115.445 447.138 103 447.271Z" fill="url(#paint3_linear_1_943)"/>
</g>
<g opacity="0.73" filter="url(#filter5_f_1_943)">
<path d="M84.5 170C84.2 174.433 83.915 178.867 83.645 183.3C81.215 223.2 80 263.1 80 303C80 342.9 81.215 382.8 83.645 422.7C83.915 427.133 84.2 431.567 84.5 436C84.8 431.567 85.085 427.133 85.355 422.7C87.785 382.8 89 342.9 89 303C89 263.1 87.785 223.2 85.355 183.3C85.085 178.867 84.8 174.433 84.5 170Z" fill="#5E55FF" fill-opacity="0.71"/>
</g>
<mask id="path-15-inside-2_1_943" fill="white">
<path d="M81 487H752V517H81V487Z"/>
</mask>
<path d="M81 487H752V517H81V487Z" fill="#150A1F"/>
<path d="M81 487V488H752V487V486H81V487Z" fill="#A020F0" fill-opacity="0.3" mask="url(#path-15-inside-2_1_943)"/>
<path d="M99.9232 506.5V499.262H97.3132V498.38H103.508V499.262H100.898V506.5H99.9232ZM104.748 506.5V498.38H109.747V499.262H105.722V501.976H109.422V502.858H105.722V505.618H109.805V506.5H104.748ZM111.284 506.5V498.38H114.567C115.069 498.38 115.51 498.469 115.889 498.647C116.276 498.817 116.577 499.064 116.794 499.389C117.01 499.706 117.119 500.089 117.119 500.538V500.665C117.119 501.199 116.991 501.62 116.736 501.93C116.481 502.239 116.179 502.448 115.831 502.556V502.718C116.109 502.726 116.338 502.819 116.515 502.997C116.701 503.167 116.794 503.426 116.794 503.774V506.5H115.831V503.89C115.831 503.658 115.765 503.48 115.634 503.356C115.51 503.233 115.321 503.171 115.065 503.171H112.258V506.5H111.284ZM112.258 502.289H114.474C115.007 502.289 115.417 502.162 115.703 501.906C115.997 501.643 116.144 501.28 116.144 500.816V500.735C116.144 500.271 116.001 499.911 115.715 499.656C115.429 499.393 115.015 499.262 114.474 499.262H112.258V502.289ZM118.602 506.5V498.38H120.458L122.615 505.885H122.766L124.924 498.38H126.78V506.5H125.84V499.018H125.678L123.532 506.5H121.85L119.704 499.018H119.541V506.5H118.602ZM128.639 506.5V498.38H129.613V506.5H128.639ZM131.471 506.5V498.38H133.361L136.192 505.885H136.343V498.38H137.305V506.5H135.415L132.596 498.983H132.433V506.5H131.471ZM138.536 506.5L141.041 498.38H142.758L145.264 506.5H144.255L143.628 504.447H140.171L139.545 506.5H138.536ZM140.415 503.565H143.373L141.981 498.972H141.819L140.415 503.565ZM146.48 506.5V498.38H147.455V505.618H151.561V506.5H146.48ZM155.486 506.5V498.38H156.461V505.618H160.567V506.5H155.486ZM164.538 506.662C163.572 506.662 162.798 506.384 162.218 505.827C161.646 505.263 161.36 504.443 161.36 503.368V501.512C161.36 500.437 161.646 499.621 162.218 499.064C162.798 498.5 163.572 498.218 164.538 498.218C165.513 498.218 166.286 498.5 166.858 499.064C167.438 499.621 167.728 500.437 167.728 501.512V503.368C167.728 504.443 167.438 505.263 166.858 505.827C166.286 506.384 165.513 506.662 164.538 506.662ZM164.538 505.792C165.242 505.792 165.787 505.584 166.174 505.166C166.561 504.741 166.754 504.153 166.754 503.403V501.477C166.754 500.727 166.561 500.143 166.174 499.726C165.787 499.3 165.242 499.088 164.538 499.088C163.842 499.088 163.301 499.3 162.914 499.726C162.528 500.143 162.334 500.727 162.334 501.477V503.403C162.334 504.153 162.528 504.741 162.914 505.166C163.301 505.584 163.842 505.792 164.538 505.792ZM172.287 506.662C171.32 506.662 170.55 506.384 169.978 505.827C169.406 505.263 169.12 504.443 169.12 503.368V501.512C169.12 500.437 169.406 499.621 169.978 499.064C170.55 498.5 171.32 498.218 172.287 498.218C173.246 498.218 173.98 498.484 174.491 499.018C175.009 499.552 175.268 500.282 175.268 501.21V501.268H174.305V501.176C174.305 500.565 174.139 500.066 173.806 499.679C173.481 499.285 172.975 499.088 172.287 499.088C171.598 499.088 171.061 499.3 170.674 499.726C170.288 500.143 170.094 500.731 170.094 501.489V503.391C170.094 504.149 170.288 504.741 170.674 505.166C171.061 505.584 171.598 505.792 172.287 505.792C172.975 505.792 173.481 505.599 173.806 505.212C174.139 504.818 174.305 504.315 174.305 503.704V503.519H175.268V503.67C175.268 504.598 175.009 505.328 174.491 505.862C173.98 506.396 173.246 506.662 172.287 506.662ZM176.794 506.5V498.38H177.769V501.918H177.931L181.365 498.38H182.664L178.708 502.394L182.803 506.5H181.469L177.931 502.892H177.769V506.5H176.794ZM183.874 506.5V498.38H188.874V499.262H184.849V501.976H188.549V502.858H184.849V505.618H188.932V506.5H183.874ZM190.028 506.5V505.63H191.165V499.25H190.028V498.38H193.195C194.262 498.38 195.086 498.651 195.666 499.192C196.253 499.733 196.547 500.565 196.547 501.686V503.194C196.547 504.323 196.253 505.158 195.666 505.7C195.086 506.233 194.262 506.5 193.195 506.5H190.028ZM192.139 505.618H193.195C193.984 505.618 194.579 505.425 194.981 505.038C195.383 504.652 195.584 504.052 195.584 503.24V501.651C195.584 500.824 195.383 500.221 194.981 499.842C194.579 499.463 193.984 499.273 193.195 499.273H192.139V505.618Z" fill="#9CA3AF"/>
<rect x="544" y="498.5" width="8" height="8" rx="4" fill="#A020F0"/>
<path d="M556.96 506.5V498.1H560.176C560.68 498.1 561.128 498.2 561.52 498.4C561.92 498.592 562.236 498.868 562.468 499.228C562.7 499.588 562.816 500.024 562.816 500.536V500.692C562.816 501.196 562.696 501.632 562.456 502C562.224 502.36 561.908 502.636 561.508 502.828C561.108 503.02 560.664 503.116 560.176 503.116H557.968V506.5H556.96ZM557.968 502.204H560.068C560.604 502.204 561.028 502.072 561.34 501.808C561.652 501.536 561.808 501.156 561.808 500.668V500.548C561.808 500.06 561.652 499.684 561.34 499.42C561.036 499.148 560.612 499.012 560.068 499.012H557.968V502.204ZM564.167 506.5V498.1H567.563C568.083 498.1 568.539 498.192 568.931 498.376C569.331 498.552 569.643 498.808 569.867 499.144C570.091 499.472 570.203 499.868 570.203 500.332V500.464C570.203 501.016 570.071 501.452 569.807 501.772C569.543 502.092 569.231 502.308 568.871 502.42V502.588C569.159 502.596 569.395 502.692 569.579 502.876C569.771 503.052 569.867 503.32 569.867 503.68V506.5H568.871V503.8C568.871 503.56 568.803 503.376 568.667 503.248C568.539 503.12 568.343 503.056 568.079 503.056H565.175V506.5H564.167ZM565.175 502.144H567.467C568.019 502.144 568.443 502.012 568.739 501.748C569.043 501.476 569.195 501.1 569.195 500.62V500.536C569.195 500.056 569.047 499.684 568.751 499.42C568.455 499.148 568.027 499.012 567.467 499.012H565.175V502.144ZM574.785 506.668C573.785 506.668 572.985 506.38 572.385 505.804C571.793 505.22 571.497 504.372 571.497 503.26V501.34C571.497 500.228 571.793 499.384 572.385 498.808C572.985 498.224 573.785 497.932 574.785 497.932C575.793 497.932 576.593 498.224 577.185 498.808C577.785 499.384 578.085 500.228 578.085 501.34V503.26C578.085 504.372 577.785 505.22 577.185 505.804C576.593 506.38 575.793 506.668 574.785 506.668ZM574.785 505.768C575.513 505.768 576.077 505.552 576.477 505.12C576.877 504.68 577.077 504.072 577.077 503.296V501.304C577.077 500.528 576.877 499.924 576.477 499.492C576.077 499.052 575.513 498.832 574.785 498.832C574.065 498.832 573.505 499.052 573.105 499.492C572.705 499.924 572.505 500.528 572.505 501.304V503.296C572.505 504.072 572.705 504.68 573.105 505.12C573.505 505.552 574.065 505.768 574.785 505.768ZM582.801 506.668C581.801 506.668 581.005 506.38 580.413 505.804C579.821 505.22 579.525 504.372 579.525 503.26V501.34C579.525 500.228 579.821 499.384 580.413 498.808C581.005 498.224 581.801 497.932 582.801 497.932C583.793 497.932 584.553 498.208 585.081 498.76C585.617 499.312 585.885 500.068 585.885 501.028V501.088H584.889V500.992C584.889 500.36 584.717 499.844 584.373 499.444C584.037 499.036 583.513 498.832 582.801 498.832C582.089 498.832 581.533 499.052 581.133 499.492C580.733 499.924 580.533 500.532 580.533 501.316V503.284C580.533 504.068 580.733 504.68 581.133 505.12C581.533 505.552 582.089 505.768 582.801 505.768C583.513 505.768 584.037 505.568 584.373 505.168C584.717 504.76 584.889 504.24 584.889 503.608V503.416H585.885V503.572C585.885 504.532 585.617 505.288 585.081 505.84C584.553 506.392 583.793 506.668 582.801 506.668ZM587.464 506.5V498.1H592.636V499.012H588.472V501.82H592.3V502.732H588.472V505.588H592.696V506.5H587.464ZM597.022 506.668C596.414 506.668 595.87 506.56 595.39 506.344C594.91 506.128 594.53 505.804 594.25 505.372C593.978 504.932 593.842 504.384 593.842 503.728V503.476H594.838V503.728C594.838 504.424 595.042 504.944 595.45 505.288C595.858 505.624 596.382 505.792 597.022 505.792C597.678 505.792 598.178 505.644 598.522 505.348C598.866 505.052 599.038 504.68 599.038 504.232C599.038 503.92 598.958 503.672 598.798 503.488C598.646 503.304 598.43 503.156 598.15 503.044C597.87 502.924 597.542 502.82 597.166 502.732L596.542 502.576C596.054 502.448 595.622 502.292 595.246 502.108C594.87 501.924 594.574 501.684 594.358 501.388C594.15 501.084 594.046 500.696 594.046 500.224C594.046 499.752 594.162 499.344 594.394 499C594.634 498.656 594.966 498.392 595.39 498.208C595.822 498.024 596.318 497.932 596.878 497.932C597.446 497.932 597.954 498.032 598.402 498.232C598.858 498.424 599.214 498.712 599.47 499.096C599.734 499.472 599.866 499.948 599.866 500.524V501.028H598.87V500.524C598.87 500.116 598.782 499.788 598.606 499.54C598.438 499.292 598.202 499.108 597.898 498.988C597.602 498.868 597.262 498.808 596.878 498.808C596.326 498.808 595.882 498.932 595.546 499.18C595.21 499.42 595.042 499.764 595.042 500.212C595.042 500.508 595.114 500.748 595.258 500.932C595.402 501.116 595.606 501.268 595.87 501.388C596.134 501.5 596.45 501.6 596.818 501.688L597.442 501.844C597.93 501.948 598.366 502.092 598.75 502.276C599.142 502.452 599.454 502.696 599.686 503.008C599.918 503.312 600.034 503.712 600.034 504.208C600.034 504.704 599.91 505.136 599.662 505.504C599.414 505.872 599.062 506.16 598.606 506.368C598.158 506.568 597.63 506.668 597.022 506.668ZM604.381 506.668C603.773 506.668 603.229 506.56 602.749 506.344C602.269 506.128 601.889 505.804 601.609 505.372C601.337 504.932 601.201 504.384 601.201 503.728V503.476H602.197V503.728C602.197 504.424 602.401 504.944 602.809 505.288C603.217 505.624 603.741 505.792 604.381 505.792C605.037 505.792 605.537 505.644 605.881 505.348C606.225 505.052 606.397 504.68 606.397 504.232C606.397 503.92 606.317 503.672 606.157 503.488C606.005 503.304 605.789 503.156 605.509 503.044C605.229 502.924 604.901 502.82 604.525 502.732L603.901 502.576C603.413 502.448 602.981 502.292 602.605 502.108C602.229 501.924 601.933 501.684 601.717 501.388C601.509 501.084 601.405 500.696 601.405 500.224C601.405 499.752 601.521 499.344 601.753 499C601.993 498.656 602.325 498.392 602.749 498.208C603.181 498.024 603.677 497.932 604.237 497.932C604.805 497.932 605.313 498.032 605.761 498.232C606.217 498.424 606.573 498.712 606.829 499.096C607.093 499.472 607.225 499.948 607.225 500.524V501.028H606.229V500.524C606.229 500.116 606.141 499.788 605.965 499.54C605.797 499.292 605.561 499.108 605.257 498.988C604.961 498.868 604.621 498.808 604.237 498.808C603.685 498.808 603.241 498.932 602.905 499.18C602.569 499.42 602.401 499.764 602.401 500.212C602.401 500.508 602.473 500.748 602.617 500.932C602.761 501.116 602.965 501.268 603.229 501.388C603.493 501.5 603.809 501.6 604.177 501.688L604.801 501.844C605.289 501.948 605.725 502.092 606.109 502.276C606.501 502.452 606.813 502.696 607.045 503.008C607.277 503.312 607.393 503.712 607.393 504.208C607.393 504.704 607.269 505.136 607.021 505.504C606.773 505.872 606.421 506.16 605.965 506.368C605.517 506.568 604.989 506.668 604.381 506.668ZM608.944 506.5V498.1H609.952V506.5H608.944ZM611.874 506.5V498.1H613.83L616.758 505.864H616.914V498.1H617.91V506.5H615.954L613.038 498.724H612.87V506.5H611.874ZM622.771 506.668C622.147 506.668 621.595 506.54 621.115 506.284C620.643 506.02 620.271 505.636 619.999 505.132C619.735 504.628 619.603 504.004 619.603 503.26V501.34C619.603 500.228 619.899 499.384 620.491 498.808C621.083 498.224 621.879 497.932 622.879 497.932C623.871 497.932 624.627 498.204 625.147 498.748C625.667 499.292 625.927 500.02 625.927 500.932V500.992H624.931V500.908C624.931 500.508 624.859 500.152 624.715 499.84C624.571 499.528 624.347 499.284 624.043 499.108C623.739 498.924 623.351 498.832 622.879 498.832C622.167 498.832 621.611 499.052 621.211 499.492C620.811 499.924 620.611 500.532 620.611 501.316V503.284C620.611 504.068 620.811 504.68 621.211 505.12C621.611 505.552 622.171 505.768 622.891 505.768C623.595 505.768 624.111 505.568 624.439 505.168C624.775 504.768 624.943 504.236 624.943 503.572V503.368H622.399V502.504H625.927V506.5H625.015V505.588H624.847C624.759 505.764 624.635 505.936 624.475 506.104C624.315 506.272 624.099 506.408 623.827 506.512C623.555 506.616 623.203 506.668 622.771 506.668ZM630.847 506.5V498.1H636.019V499.012H631.855V501.82H635.683V502.732H631.855V505.588H636.079V506.5H630.847ZM637.608 506.5V498.1H639.564L642.492 505.864H642.648V498.1H643.644V506.5H641.688L638.772 498.724H638.604V506.5H637.608ZM648.613 506.668C647.613 506.668 646.817 506.38 646.225 505.804C645.633 505.22 645.337 504.372 645.337 503.26V501.34C645.337 500.228 645.633 499.384 646.225 498.808C646.817 498.224 647.613 497.932 648.613 497.932C649.605 497.932 650.365 498.208 650.893 498.76C651.429 499.312 651.697 500.068 651.697 501.028V501.088H650.701V500.992C650.701 500.36 650.529 499.844 650.185 499.444C649.849 499.036 649.325 498.832 648.613 498.832C647.901 498.832 647.345 499.052 646.945 499.492C646.545 499.924 646.345 500.532 646.345 501.316V503.284C646.345 504.068 646.545 504.68 646.945 505.12C647.345 505.552 647.901 505.768 648.613 505.768C649.325 505.768 649.849 505.568 650.185 505.168C650.529 504.76 650.701 504.24 650.701 503.608V503.416H651.697V503.572C651.697 504.532 651.429 505.288 650.893 505.84C650.365 506.392 649.605 506.668 648.613 506.668ZM653.276 506.5V498.1H656.672C657.192 498.1 657.648 498.192 658.04 498.376C658.44 498.552 658.752 498.808 658.976 499.144C659.2 499.472 659.312 499.868 659.312 500.332V500.464C659.312 501.016 659.18 501.452 658.916 501.772C658.652 502.092 658.34 502.308 657.98 502.42V502.588C658.268 502.596 658.504 502.692 658.688 502.876C658.88 503.052 658.976 503.32 658.976 503.68V506.5H657.98V503.8C657.98 503.56 657.912 503.376 657.776 503.248C657.648 503.12 657.452 503.056 657.188 503.056H654.284V506.5H653.276ZM654.284 502.144H656.576C657.128 502.144 657.552 502.012 657.848 501.748C658.152 501.476 658.304 501.1 658.304 500.62V500.536C658.304 500.056 658.156 499.684 657.86 499.42C657.564 499.148 657.136 499.012 656.576 499.012H654.284V502.144ZM662.879 506.5V503.296L659.891 498.1H661.043L663.299 502.132H663.467L665.723 498.1H666.875L663.887 503.296V506.5H662.879ZM668.007 506.5V498.1H671.223C671.727 498.1 672.175 498.2 672.567 498.4C672.967 498.592 673.283 498.868 673.515 499.228C673.747 499.588 673.863 500.024 673.863 500.536V500.692C673.863 501.196 673.743 501.632 673.503 502C673.271 502.36 672.955 502.636 672.555 502.828C672.155 503.02 671.711 503.116 671.223 503.116H669.015V506.5H668.007ZM669.015 502.204H671.115C671.651 502.204 672.075 502.072 672.387 501.808C672.699 501.536 672.855 501.156 672.855 500.668V500.548C672.855 500.06 672.699 499.684 672.387 499.42C672.083 499.148 671.659 499.012 671.115 499.012H669.015V502.204ZM677.254 506.5V499.012H674.554V498.1H680.962V499.012H678.262V506.5H677.254ZM682.245 506.5V498.1H687.417V499.012H683.253V501.82H687.081V502.732H683.253V505.588H687.477V506.5H682.245ZM688.611 506.5V505.6H689.787V499H688.611V498.1H691.887C692.991 498.1 693.843 498.38 694.443 498.94C695.051 499.5 695.355 500.36 695.355 501.52V503.08C695.355 504.248 695.051 505.112 694.443 505.672C693.843 506.224 692.991 506.5 691.887 506.5H688.611ZM690.795 505.588H691.887C692.703 505.588 693.319 505.388 693.735 504.988C694.151 504.588 694.359 503.968 694.359 503.128V501.484C694.359 500.628 694.151 500.004 693.735 499.612C693.319 499.22 692.703 499.024 691.887 499.024H690.795V505.588ZM700.046 506.5V498.1H705.122V499.012H701.054V501.832H704.798V502.744H701.054V506.5H700.046ZM706.526 506.5V498.1H711.698V499.012H707.534V501.82H711.362V502.732H707.534V505.588H711.758V506.5H706.526ZM713.288 506.5V498.1H718.46V499.012H714.296V501.82H718.124V502.732H714.296V505.588H718.52V506.5H713.288ZM719.654 506.5V505.6H720.83V499H719.654V498.1H722.93C724.034 498.1 724.886 498.38 725.486 498.94C726.094 499.5 726.398 500.36 726.398 501.52V503.08C726.398 504.248 726.094 505.112 725.486 505.672C724.886 506.224 724.034 506.5 722.93 506.5H719.654ZM721.838 505.588H722.93C723.746 505.588 724.362 505.388 724.778 504.988C725.194 504.588 725.402 503.968 725.402 503.128V501.484C725.402 500.628 725.194 500.004 724.778 499.612C724.362 499.22 723.746 499.024 722.93 499.024H721.838V505.588ZM728.278 506.668C728.046 506.668 727.85 506.592 727.69 506.44C727.538 506.288 727.462 506.092 727.462 505.852C727.462 505.612 727.538 505.416 727.69 505.264C727.85 505.112 728.046 505.036 728.278 505.036C728.518 505.036 728.714 505.112 728.866 505.264C729.018 505.416 729.094 505.612 729.094 505.852C729.094 506.092 729.018 506.288 728.866 506.44C728.714 506.592 728.518 506.668 728.278 506.668ZM731.313 506.668C731.081 506.668 730.885 506.592 730.725 506.44C730.573 506.288 730.497 506.092 730.497 505.852C730.497 505.612 730.573 505.416 730.725 505.264C730.885 505.112 731.081 505.036 731.313 505.036C731.553 505.036 731.749 505.112 731.901 505.264C732.053 505.416 732.129 505.612 732.129 505.852C732.129 506.092 732.053 506.288 731.901 506.44C731.749 506.592 731.553 506.668 731.313 506.668ZM734.348 506.668C734.116 506.668 733.92 506.592 733.76 506.44C733.608 506.288 733.532 506.092 733.532 505.852C733.532 505.612 733.608 505.416 733.76 505.264C733.92 505.112 734.116 505.036 734.348 505.036C734.588 505.036 734.784 505.112 734.936 505.264C735.088 505.416 735.164 505.612 735.164 505.852C735.164 506.092 735.088 506.288 734.936 506.44C734.784 506.592 734.588 506.668 734.348 506.668Z" fill="#9D00FF"/>
</g>
<rect x="80.5" y="80.5" width="671" height="436" rx="7.5" stroke="#D694FF"/>
<rect x="80.5" y="80.5" width="671" height="436" rx="7.5" stroke="#F7E2FF"/>
</g>
<defs>
<filter id="filter0_ddi_1_943" x="0" y="0" width="832" height="597" filterUnits="userSpaceOnUse" color-interpolation-filters="sRGB">
<feFlood flood-opacity="0" result="BackgroundImageFix"/>
<feColorMatrix in="SourceAlpha" type="matrix" values="0 0 0 0 0 0 0 0 0 0 0 0 0 0 0 0 0 0 127 0" result="hardAlpha"/>
<feOffset/>
<feGaussianBlur stdDeviation="40"/>
<feComposite in2="hardAlpha" operator="out"/>
<feColorMatrix type="matrix" values="0 0 0 0 0.627451 0 0 0 0 0.12549 0 0 0 0 0.941176 0 0 0 0.4 0"/>
<feBlend mode="normal" in2="BackgroundImageFix" result="effect1_dropShadow_1_943"/>
<feColorMatrix in="SourceAlpha" type="matrix" values="0 0 0 0 0 0 0 0 0 0 0 0 0 0 0 0 0 0 127 0" result="hardAlpha"/>
<feOffset/>
<feGaussianBlur stdDeviation="4.95"/>
<feComposite in2="hardAlpha" operator="out"/>
<feColorMatrix type="matrix" values="0 0 0 0 0.615686 0 0 0 0 0 0 0 0 0 1 0 0 0 0.81 0"/>
<feBlend mode="normal" in2="effect1_dropShadow_1_943" result="effect2_dropShadow_1_943"/>
<feBlend mode="normal" in="SourceGraphic" in2="effect2_dropShadow_1_943" result="shape"/>
<feColorMatrix in="SourceAlpha" type="matrix" values="0 0 0 0 0 0 0 0 0 0 0 0 0 0 0 0 0 0 127 0" result="hardAlpha"/>
<feOffset/>
<feGaussianBlur stdDeviation="5"/>
<feComposite in2="hardAlpha" operator="arithmetic" k2="-1" k3="1"/>
<feColorMatrix type="matrix" values="0 0 0 0 0.616667 0 0 0 0 0 0 0 0 0 1 0 0 0 1 0"/>
<feBlend mode="normal" in2="shape" result="effect3_innerShadow_1_943"/>
</filter>
<filter id="filter1_d_1_943" x="720" y="77" width="36" height="36" filterUnits="userSpaceOnUse" color-interpolation-filters="sRGB">
<feFlood flood-opacity="0" result="BackgroundImageFix"/>
<feColorMatrix in="SourceAlpha" type="matrix" values="0 0 0 0 0 0 0 0 0 0 0 0 0 0 0 0 0 0 127 0" result="hardAlpha"/>
<feOffset/>
<feGaussianBlur stdDeviation="6.5"/>
<feComposite in2="hardAlpha" operator="out"/>
<feColorMatrix type="matrix" values="0 0 0 0 0.941176 0 0 0 0 1 0 0 0 0 0 0 0 0 1 0"/>
<feBlend mode="normal" in2="BackgroundImageFix" result="effect1_dropShadow_1_943"/>
<feBlend mode="normal" in="SourceGraphic" in2="effect1_dropShadow_1_943" result="shape"/>
</filter>
<filter id="filter2_d_1_943" x="71" y="111" width="691" height="22" filterUnits="userSpaceOnUse" color-interpolation-filters="sRGB">
<feFlood flood-opacity="0" result="BackgroundImageFix"/>
<feColorMatrix in="SourceAlpha" type="matrix" values="0 0 0 0 0 0 0 0 0 0 0 0 0 0 0 0 0 0 127 0" result="hardAlpha"/>
<feOffset/>
<feGaussianBlur stdDeviation="5"/>
<feComposite in2="hardAlpha" operator="out"/>
<feColorMatrix type="matrix" values="0 0 0 0 0.368627 0 0 0 0 0.333333 0 0 0 0 1 0 0 0 1 0"/>
<feBlend mode="normal" in2="BackgroundImageFix" result="effect1_dropShadow_1_943"/>
<feBlend mode="normal" in="SourceGraphic" in2="effect1_dropShadow_1_943" result="shape"/>
</filter>
<filter id="filter3_dd_1_943" x="120.16" y="193.344" width="593.771" height="128.02" filterUnits="userSpaceOnUse" color-interpolation-filters="sRGB">
<feFlood flood-opacity="0" result="BackgroundImageFix"/>
<feColorMatrix in="SourceAlpha" type="matrix" values="0 0 0 0 0 0 0 0 0 0 0 0 0 0 0 0 0 0 127 0" result="hardAlpha"/>
<feOffset dx="-2"/>
<feComposite in2="hardAlpha" operator="out"/>
<feColorMatrix type="matrix" values="0 0 0 0 0.450282 0 0 0 0 0.455678 0 0 0 0 0.774038 0 0 0 0.69 0"/>
<feBlend mode="normal" in2="BackgroundImageFix" result="effect1_dropShadow_1_943"/>
<feColorMatrix in="SourceAlpha" type="matrix" values="0 0 0 0 0 0 0 0 0 0 0 0 0 0 0 0 0 0 127 0" result="hardAlpha"/>
<feOffset dx="2"/>
<feComposite in2="hardAlpha" operator="out"/>
<feColorMatrix type="matrix" values="0 0 0 0 0.627451 0 0 0 0 0.12549 0 0 0 0 0.941176 0 0 0 0.65 0"/>
<feBlend mode="normal" in2="effect1_dropShadow_1_943" result="effect2_dropShadow_1_943"/>
<feBlend mode="normal" in="SourceGraphic" in2="effect2_dropShadow_1_943" result="shape"/>
</filter>
<filter id="filter4_d_1_943" x="93" y="404.897" width="642" height="75.198" filterUnits="userSpaceOnUse" color-interpolation-filters="sRGB">
<feFlood flood-opacity="0" result="BackgroundImageFix"/>
<feColorMatrix in="SourceAlpha" type="matrix" values="0 0 0 0 0 0 0 0 0 0 0 0 0 0 0 0 0 0 127 0" result="hardAlpha"/>
<feOffset/>
<feGaussianBlur stdDeviation="5"/>
<feComposite in2="hardAlpha" operator="out"/>
<feColorMatrix type="matrix" values="0 0 0 0 0.455305 0 0 0 0 0.188566 0 0 0 0 0.988782 0 0 0 1 0"/>
<feBlend mode="normal" in2="BackgroundImageFix" result="effect1_dropShadow_1_943"/>
<feBlend mode="normal" in="SourceGraphic" in2="effect1_dropShadow_1_943" result="shape"/>
</filter>
<filter id="filter5_f_1_943" x="69.6" y="159.6" width="29.8" height="286.8" filterUnits="userSpaceOnUse" color-interpolation-filters="sRGB">
<feFlood flood-opacity="0" result="BackgroundImageFix"/>
<feBlend mode="normal" in="SourceGraphic" in2="BackgroundImageFix" result="shape"/>
<feGaussianBlur stdDeviation="5.2" result="effect1_foregroundBlur_1_943"/>
</filter>
<linearGradient id="paint0_linear_1_943" x1="84" y1="301.5" x2="748" y2="301.5" gradientUnits="userSpaceOnUse">
<stop stop-color="#FF0000" stop-opacity="0.06"/>
<stop offset="0.5" stop-color="#00FF00" stop-opacity="0.02"/>
<stop offset="1" stop-color="#0000FF" stop-opacity="0.06"/>
</linearGradient>
<linearGradient id="paint1_linear_1_943" x1="416" y1="84" x2="416" y2="519" gradientUnits="userSpaceOnUse">
<stop offset="0.5" stop-opacity="0"/>
<stop offset="0.5" stop-opacity="0.25"/>
</linearGradient>
<linearGradient id="paint2_linear_1_943" x1="81" y1="116.762" x2="752" y2="116.762" gradientUnits="userSpaceOnUse">
<stop stop-color="#5E55FF" stop-opacity="0"/>
<stop offset="0.504808" stop-color="#5E55FF"/>
<stop offset="1" stop-color="#5E55FF" stop-opacity="0"/>
</linearGradient>
<linearGradient id="paint3_linear_1_943" x1="103" y1="442.5" x2="725" y2="442.5" gradientUnits="userSpaceOnUse">
<stop stop-color="#EB8EFD" stop-opacity="0"/>
<stop offset="0.504808" stop-color="#A43DFF"/>
<stop offset="1" stop-color="#EB8EFD" stop-opacity="0"/>
</linearGradient>
<clipPath id="clip0_1_943">
<rect x="80" y="80" width="672" height="437" rx="8" fill="white"/>
</clipPath>
</defs>
</svg>
