<svg width="60" height="90" viewBox="0 0 60 90" fill="none" xmlns="http://www.w3.org/2000/svg">
<path d="M2.5 55.5L30 8L57.5 55.5H2.5ZM11.125 50.5H48.875L30 18L11.125 50.5ZM30 48C30.7083 48 31.3021 47.7604 31.7812 47.2812C32.2604 46.8021 32.5 46.2083 32.5 45.5C32.5 44.7917 32.2604 44.1979 31.7812 43.7188C31.3021 43.2396 30.7083 43 30 43C29.2917 43 28.6979 43.2396 28.2188 43.7188C27.7396 44.1979 27.5 44.7917 27.5 45.5C27.5 46.2083 27.7396 46.8021 28.2188 47.2812C28.6979 47.7604 29.2917 48 30 48ZM27.5 40.5H32.5V28H27.5V40.5Z" fill="#A020F0"/>
</svg>
